<svg width="58" height="58" viewBox="0 0 58 58" fill="none" xmlns="http://www.w3.org/2000/svg">
<path d="M38.085 16.6185C38.085 15.1571 55.0885 26.6325 55.0885 26.6325H50.3307V45.3579H7.6123V45.6298C7.6123 41.0192 11.8943 37.2923 17.1846 37.2923H32.1377C38.3115 37.2923 38.0283 32.104 38.0283 17.536V17.4567C38.0283 17.1735 38.085 16.8903 38.085 16.6185Z" fill="url(#paint0_linear_932_21506)"/>
<path d="M37.5753 25.7261C38.0737 25.7261 38.4815 26.134 38.4815 26.6324C38.4815 27.1308 38.0737 27.5386 37.5753 27.5386H32.421V40.6566C32.421 41.1551 32.0132 41.5629 31.5148 41.5629C31.0163 41.5629 30.6085 41.1551 30.6085 40.6566V26.6324C30.6085 26.134 31.0163 25.7261 31.5148 25.7261H37.5753ZM22.4296 25.7261C21.9312 25.7261 21.5233 26.134 21.5233 26.6324V40.6566C21.5233 41.1551 21.9312 41.5629 22.4296 41.5629C22.928 41.5629 23.3358 41.1551 23.3358 40.6566V27.5386H28.4901C28.9886 27.5386 29.3964 27.1308 29.3964 26.6324C29.3964 26.134 28.9886 25.7261 28.4901 25.7261H22.4296ZM15.0097 21.3535L30.0081 12.5289L52.4378 25.7261H49.7077C49.2093 25.7261 48.8015 26.134 48.8015 26.6324V41.8008C48.8015 42.2992 49.2093 42.707 49.7077 42.707C50.2062 42.707 50.614 42.2992 50.614 41.8008V27.5386H55.7683C56.1761 27.5386 56.5386 27.2668 56.6405 26.8703C56.7425 26.4738 56.5726 26.0547 56.2214 25.8508L30.4612 10.6937C30.178 10.5238 29.8269 10.5238 29.5437 10.6937L14.0921 19.7902C13.6616 20.0394 13.5144 20.5945 13.7749 21.0363C14.0241 21.4554 14.5792 21.6027 15.0097 21.3535ZM40.6112 25.7261C40.1128 25.7261 39.705 26.134 39.705 26.6324V40.6566C39.705 41.1551 40.1128 41.5629 40.6112 41.5629C41.1097 41.5629 41.5175 41.1551 41.5175 40.6566V27.5386H46.6718C47.1702 27.5386 47.578 27.1308 47.578 26.6324C47.578 26.134 47.1702 25.7261 46.6718 25.7261H40.6112ZM55.7569 53.1062H6.38897L7.00069 51.8828H53.6726C54.171 51.8828 54.5788 51.475 54.5788 50.9765C54.5788 50.4781 54.171 50.0703 53.6726 50.0703H6.43428C6.09444 50.0703 5.77725 50.2629 5.61866 50.5687L4.10069 53.6047C3.96475 53.8879 3.97608 54.2164 4.146 54.4883C4.31592 54.7601 4.59913 54.9187 4.91631 54.9187H55.7569C56.2554 54.9187 56.6632 54.5109 56.6632 54.0125C56.6632 53.514 56.2554 53.1062 55.7569 53.1062ZM13.3331 41.5515C13.8315 41.5515 14.2394 41.1437 14.2394 40.6453V27.5386H19.3937C19.8921 27.5386 20.2999 27.1308 20.2999 26.6324C20.2999 26.134 19.8921 25.7261 19.3937 25.7261H13.3331C12.8347 25.7261 12.4269 26.134 12.4269 26.6324V40.6566C12.4269 41.1437 12.8347 41.5515 13.3331 41.5515ZM9.40225 27.5386V40.8832H7.27256C6.77413 40.8832 6.36631 41.291 6.36631 41.7894V44.8254C6.36631 45.3238 6.77413 45.7316 7.27256 45.7316H49.821L50.4327 46.9551H7.8503C7.35186 46.9551 6.94405 47.3629 6.94405 47.8613C6.94405 48.3597 7.35186 48.7676 7.8503 48.7676H51.894C52.2112 48.7676 52.4944 48.609 52.6644 48.3371C52.8343 48.0652 52.8456 47.7367 52.6983 47.4535L51.1917 44.4062C51.0331 44.1004 50.7273 43.9078 50.3761 43.9078H8.17881V42.6843H10.3085C10.8069 42.6843 11.2148 42.2765 11.2148 41.7781V26.6324C11.2148 26.134 10.8069 25.7261 10.3085 25.7261H7.56709L9.85538 24.3781C10.2858 24.1289 10.4331 23.5738 10.1726 23.132C9.92334 22.7015 9.36827 22.5543 8.92647 22.8148L3.77217 25.8508C3.421 26.0547 3.25108 26.4738 3.35303 26.8703C3.45499 27.2668 3.81749 27.5386 4.2253 27.5386H9.40225Z" fill="black"/>
<path d="M44.497 8.1562C44.9728 8.63198 44.9728 9.40229 44.497 9.87808C44.0212 10.3539 43.2509 10.3539 42.7751 9.87808C42.2993 9.40229 42.2993 8.63198 42.7751 8.1562C43.2509 7.68042 44.0212 7.68042 44.497 8.1562ZM6.64971 8.8019H6.20791V8.36011C6.20791 7.86167 5.8001 7.45386 5.30166 7.45386C4.80322 7.45386 4.39541 7.86167 4.39541 8.36011V8.8019H3.95361C3.45518 8.8019 3.04736 9.20972 3.04736 9.70815C3.04736 10.2066 3.45518 10.6144 3.95361 10.6144H4.39541V11.0562C4.39541 11.5546 4.80322 11.9625 5.30166 11.9625C5.8001 11.9625 6.20791 11.5546 6.20791 11.0562V10.6144H6.64971C7.14814 10.6144 7.55596 10.2066 7.55596 9.70815C7.55596 9.20972 7.14814 8.8019 6.64971 8.8019ZM54.4544 11.5546H52.6646V9.76479C52.6646 9.26636 52.2567 8.85854 51.7583 8.85854C51.2599 8.85854 50.8521 9.26636 50.8521 9.76479V11.5546H49.0622C48.5638 11.5546 48.156 11.9625 48.156 12.4609C48.156 12.9593 48.5638 13.3671 49.0622 13.3671H50.8521V15.157C50.8521 15.6554 51.2599 16.0632 51.7583 16.0632C52.2567 16.0632 52.6646 15.6554 52.6646 15.157V13.3671H54.4544C54.9528 13.3671 55.3606 12.9593 55.3606 12.4609C55.3606 11.9625 54.9528 11.5546 54.4544 11.5546Z" fill="black"/>
<defs>
<linearGradient id="paint0_linear_932_21506" x1="31.3471" y1="47.9151" x2="31.3471" y2="12.9014" gradientUnits="userSpaceOnUse">
<stop stop-color="#008E10" stop-opacity="0.46"/>
<stop offset="1" stop-color="#008E10"/>
</linearGradient>
</defs>
</svg>
