<svg width="18" height="19" viewBox="0 0 18 19" fill="none" xmlns="http://www.w3.org/2000/svg">
<path d="M16.5 8.8V3.7C16.5 2.575 16.02 2.125 14.8275 2.125H11.7975C10.605 2.125 10.125 2.575 10.125 3.7V8.8C10.125 9.925 10.605 10.375 11.7975 10.375H14.8275C16.02 10.375 16.5 9.925 16.5 8.8Z" stroke="#5E636D" stroke-linecap="round" stroke-linejoin="round"/>
<path d="M16.5 15.55V14.2C16.5 13.075 16.02 12.625 14.8275 12.625H11.7975C10.605 12.625 10.125 13.075 10.125 14.2V15.55C10.125 16.675 10.605 17.125 11.7975 17.125H14.8275C16.02 17.125 16.5 16.675 16.5 15.55Z" stroke="#5E636D" stroke-linecap="round" stroke-linejoin="round"/>
<path d="M7.875 10.45V15.55C7.875 16.675 7.395 17.125 6.2025 17.125H3.1725C1.98 17.125 1.5 16.675 1.5 15.55V10.45C1.5 9.325 1.98 8.875 3.1725 8.875H6.2025C7.395 8.875 7.875 9.325 7.875 10.45Z" stroke="#5E636D" stroke-linecap="round" stroke-linejoin="round"/>
<path d="M7.875 3.7V5.05C7.875 6.175 7.395 6.625 6.2025 6.625H3.1725C1.98 6.625 1.5 6.175 1.5 5.05V3.7C1.5 2.575 1.98 2.125 3.1725 2.125H6.2025C7.395 2.125 7.875 2.575 7.875 3.7Z" stroke="#5E636D" stroke-linecap="round" stroke-linejoin="round"/>
</svg>
