<svg width="34" height="34" viewBox="0 0 34 34" fill="none" xmlns="http://www.w3.org/2000/svg">
<rect width="34" height="34" rx="17" fill="#EF2B23" fill-opacity="0.19"/>
<path fill-rule="evenodd" clip-rule="evenodd" d="M18.5018 17.5002L21.5426 14.4593C21.8196 14.1823 21.8196 13.7347 21.5426 13.4577C21.2657 13.1808 20.818 13.1808 20.5411 13.4577L17.5002 16.4986L14.4593 13.4577C14.1823 13.1808 13.7347 13.1808 13.4577 13.4577C13.1808 13.7347 13.1808 14.1823 13.4577 14.4593L16.4986 17.5002L13.4577 20.5411C13.1808 20.818 13.1808 21.2657 13.4577 21.5426C13.5958 21.6808 13.7772 21.7502 13.9585 21.7502C14.1398 21.7502 14.3212 21.6808 14.4593 21.5426L17.5002 18.5018L20.5411 21.5426C20.6792 21.6808 20.8605 21.7502 21.0418 21.7502C21.2232 21.7502 21.4045 21.6808 21.5426 21.5426C21.8196 21.2657 21.8196 20.818 21.5426 20.5411L18.5018 17.5002Z" fill="#F04038"/>
</svg>
