<svg width="58" height="59" viewBox="0 0 58 59" fill="none" xmlns="http://www.w3.org/2000/svg">
<path d="M53.0485 24.2593C53.5173 24.2593 53.8973 23.8794 53.8973 23.4105C53.8973 22.9417 53.5173 22.5618 53.0485 22.5618V24.2593ZM4.24365 24.2593H53.0485V22.5618H4.24365V24.2593Z" fill="#008E10"/>
<path d="M24.0488 10.3955L20.5122 23.7769L29 53.4004L37.4878 23.7769L33.9512 10.3955" stroke="#008E10" stroke-width="0.87" stroke-linejoin="bevel"/>
<path d="M44.5305 11.156L44.5384 11.1668L44.5468 11.1772L53.4888 22.5081C53.5806 22.6393 53.6741 22.9497 53.6504 23.3774C53.6263 23.8095 53.4943 24.1389 53.3769 24.2786L53.3754 24.2803L29.588 52.6875C29.5877 52.6878 29.5876 52.6882 29.5873 52.6885C29.2625 53.0724 28.7381 53.0724 28.4136 52.6882C28.4133 52.688 28.4131 52.6878 28.413 52.6875L4.62567 24.2803L4.62397 24.2783C4.53035 24.1672 4.41741 23.8702 4.42149 23.4325C4.42547 23.0082 4.53846 22.6662 4.6528 22.5069L13.4583 11.1721L13.4645 11.1642L13.4705 11.156C13.638 10.9295 13.8718 10.8203 14.0939 10.8203H29.0002H43.9066C44.1295 10.8203 44.3631 10.9296 44.5305 11.156Z" stroke="#008E10" stroke-width="0.87"/>
<path fill-rule="evenodd" clip-rule="evenodd" d="M23.5857 11.386H13.4404C12.9074 11.386 12.4036 11.6148 12.0698 12.0088L3.92064 22.301C3.64612 22.6252 3.52067 23.7279 3.53824 24.1177H20.4544L23.5857 11.386Z" fill="#008E10" fill-opacity="0.46"/>
<path fill-rule="evenodd" clip-rule="evenodd" d="M34.4146 11.386H44.5599C45.0928 11.386 45.5967 11.6148 45.9304 12.0088L54.0797 22.301C54.3541 22.6252 54.4796 23.7279 54.462 24.1177H37.5458L34.4146 11.386Z" fill="#008E10" fill-opacity="0.46"/>
<path fill-rule="evenodd" clip-rule="evenodd" d="M28.0077 51.9045C28.2793 52.1917 28.6325 52.3565 28.9998 52.4104L20.5119 23.4104H4.24365C4.26008 23.7819 4.40601 24.1481 4.68339 24.44L28.0077 51.9045Z" fill="#008E10" fill-opacity="0.46"/>
<path fill-rule="evenodd" clip-rule="evenodd" d="M29.9921 51.9045C29.7205 52.1917 29.3672 52.3565 29 52.4104L37.4878 23.4104H53.7561C53.7397 23.7819 53.5937 24.1481 53.3164 24.44L29.9921 51.9045Z" fill="#008E10" fill-opacity="0.46"/>
</svg>
