<svg width="34" height="34" viewBox="0 0 34 34" fill="none" xmlns="http://www.w3.org/2000/svg">
<rect width="34" height="34" rx="17" fill="#FFA500" fill-opacity="0.41"/>
<path fill-rule="evenodd" clip-rule="evenodd" d="M21.0417 14.6669H11.8334C11.4424 14.6669 11.125 14.3503 11.125 13.9586C11.125 13.5669 11.4424 13.2503 11.8334 13.2503H21.0998L19.9962 12.3932C19.6874 12.1531 19.6314 11.7075 19.8715 11.3994C20.1116 11.0899 20.5572 11.0339 20.8653 11.274L23.6009 13.399C23.7759 13.5343 23.8764 13.7433 23.875 13.965C23.8736 14.1853 23.7688 14.3928 23.5917 14.5253L20.7584 16.6503C20.6309 16.7459 20.4814 16.7919 20.3341 16.7919C20.1187 16.7919 19.9055 16.6942 19.7667 16.5086C19.5322 16.1955 19.5953 15.7514 19.9084 15.5169L21.0417 14.6669ZM13.9583 19.6253H23.1667C23.5577 19.6253 23.875 19.9419 23.875 20.3336C23.875 20.7253 23.5577 21.0419 23.1667 21.0419H13.9003L15.0038 21.899C15.3127 22.1391 15.3686 22.5847 15.1285 22.8928C14.989 23.0727 14.78 23.1669 14.5689 23.1669C14.4166 23.1669 14.2636 23.1188 14.1347 23.0182L11.3991 20.8932C11.2242 20.7579 11.1236 20.5489 11.125 20.3272C11.1264 20.1069 11.2313 19.8994 11.4083 19.7669L14.2417 17.6419C14.5555 17.4075 14.9989 17.4705 15.2333 17.7836C15.4678 18.0967 15.4048 18.5408 15.0917 18.7753L13.9583 19.6253Z" fill="#E59D19"/>
</svg>
