<svg width="34" height="34" viewBox="0 0 34 34" fill="none" xmlns="http://www.w3.org/2000/svg">
<rect width="34" height="34" rx="17" fill="#008E10" fill-opacity="0.46"/>
<path fill-rule="evenodd" clip-rule="evenodd" d="M23.8697 13.9321C23.8683 13.8811 23.8534 13.833 23.8399 13.7841C23.8293 13.743 23.8244 13.7012 23.8066 13.6637C23.7904 13.6268 23.7627 13.5971 23.7386 13.5631C23.7089 13.5199 23.682 13.4767 23.6437 13.4412C23.6374 13.4349 23.6345 13.4264 23.6274 13.4207C23.6019 13.3987 23.5708 13.391 23.5431 13.3732C23.5006 13.3456 23.4589 13.3173 23.4107 13.2989C23.3632 13.2819 23.3165 13.2776 23.2676 13.2705C23.2336 13.2656 23.2031 13.25 23.167 13.25H19.6254C19.2336 13.25 18.917 13.5673 18.917 13.9583C18.917 14.3493 19.2336 14.6667 19.6254 14.6667H21.6271L18.7683 18.0015L15.7394 16.1846C15.4398 16.0033 15.0545 16.0699 14.8306 16.3383L11.289 20.5883C11.0389 20.8887 11.0793 21.3356 11.3796 21.5857C11.5128 21.6962 11.6729 21.75 11.833 21.75C12.0363 21.75 12.2374 21.6636 12.3777 21.495L15.5312 17.7111L18.5522 19.5244C18.849 19.7022 19.2301 19.6399 19.4546 19.3778L22.4587 15.873V17.5C22.4587 17.891 22.7753 18.2083 23.167 18.2083C23.5587 18.2083 23.8754 17.891 23.8754 17.5V13.9583C23.8754 13.9491 23.8704 13.9413 23.8697 13.9321Z" fill="#199827"/>
</svg>
