<svg width="25" height="25" viewBox="0 0 25 25" fill="none" xmlns="http://www.w3.org/2000/svg">
<path d="M10.5 10.53C10.5 11.07 10.65 11.15 10.99 11.27L11.5 11.45V9.75H11.2C10.82 9.75 10.5 10.1 10.5 10.53Z" fill="white"/>
<path d="M13 15.25H13.3C13.69 15.25 14 14.9 14 14.47C14 13.93 13.85 13.85 13.51 13.73L13 13.55V15.25Z" fill="white"/>
<path d="M19.83 5.98L17.78 8.03C17.63 8.18 17.44 8.25 17.25 8.25C17.06 8.25 16.87 8.18 16.72 8.03C16.43 7.74 16.43 7.26 16.72 6.97L18.77 4.92C17.01 3.42 14.74 2.5 12.25 2.5C6.73 2.5 2.25 6.98 2.25 12.5C2.25 18.02 6.73 22.5 12.25 22.5C17.77 22.5 22.25 18.02 22.25 12.5C22.25 10.01 21.33 7.74 19.83 5.98ZM14 12.32C14.64 12.55 15.5 13.01 15.5 14.48C15.5 15.73 14.51 16.76 13.3 16.76H13V17.01C13 17.42 12.66 17.76 12.25 17.76C11.84 17.76 11.5 17.42 11.5 17.01V16.76H11.42C10.09 16.76 9 15.64 9 14.26C9 13.84 9.34 13.5 9.75 13.5C10.16 13.5 10.5 13.84 10.5 14.25C10.5 14.8 10.91 15.25 11.42 15.25H11.5V13.03L10.5 12.68C9.86 12.45 9 11.99 9 10.52C9 9.27 9.99 8.24 11.2 8.24H11.5V8C11.5 7.59 11.84 7.25 12.25 7.25C12.66 7.25 13 7.59 13 8V8.25H13.08C14.41 8.25 15.5 9.37 15.5 10.75C15.5 11.16 15.16 11.5 14.75 11.5C14.34 11.5 14 11.16 14 10.75C14 10.2 13.59 9.75 13.08 9.75H13V11.97L14 12.32Z" fill="white"/>
<path d="M22.94 2.21C22.86 2.03 22.72 1.88 22.53 1.8C22.44 1.77 22.35 1.75 22.25 1.75H18.25C17.84 1.75 17.5 2.09 17.5 2.5C17.5 2.91 17.84 3.25 18.25 3.25H20.44L18.77 4.92C19.15 5.25 19.5 5.6 19.83 5.98L21.5 4.31V6.5C21.5 6.91 21.84 7.25 22.25 7.25C22.66 7.25 23 6.91 23 6.5V2.5C23 2.4 22.98 2.31 22.94 2.21Z" fill="white"/>
</svg>
