<svg width="24" height="23" viewBox="0 0 24 23" fill="none" xmlns="http://www.w3.org/2000/svg">
<path d="M18.9101 5.98148H20.2111C20.0293 5.72319 19.838 5.48403 19.6371 5.24487L18.9101 5.98148Z" fill="#008E10"/>
<path d="M18.6327 4.23084C18.3935 4.02995 18.1543 3.83862 17.896 3.65686V4.95788L18.6327 4.23084Z" fill="#008E10"/>
<path d="M19.6467 5.24491L22.4687 2.42284C22.7462 2.14542 22.7462 1.68624 22.4687 1.40881C22.1913 1.13139 21.7321 1.13139 21.4547 1.40881L18.6327 4.23088C18.9962 4.54657 19.331 4.89096 19.6467 5.24491Z" fill="#008E10"/>
<path d="M17.896 2.8725C17.896 2.48028 17.5708 2.15503 17.1786 2.15503C16.7959 2.15503 16.4898 2.46115 16.4707 2.83424C16.9681 3.0734 17.4464 3.34125 17.896 3.65694V2.8725Z" fill="#008E10"/>
<path d="M21.7226 6.69898C21.7226 6.30676 21.3973 5.98151 21.0051 5.98151H20.2111C20.5268 6.43112 20.8042 6.90944 21.0338 7.40689C21.4165 7.38776 21.7226 7.08163 21.7226 6.69898Z" fill="#008E10"/>
<path d="M13.1129 14.1128H13.3999C13.773 14.1128 14.0695 13.778 14.0695 13.3667C14.0695 12.8501 13.926 12.7736 13.6008 12.6588L13.1129 12.4866V14.1128Z" fill="#008E10"/>
<path d="M21.0434 7.4069C21.0338 7.4069 21.0242 7.41647 21.0051 7.41647H17.1786C17.0829 7.41647 16.9968 7.39734 16.9011 7.35907C16.729 7.28254 16.5855 7.14861 16.5089 6.96685C16.4802 6.88076 16.4611 6.79466 16.4611 6.699V2.87247C16.4611 2.8629 16.4707 2.85333 16.4707 2.8342C15.227 2.25065 13.8495 1.91583 12.3954 1.91583C7.11479 1.91583 2.82908 6.20155 2.82908 11.4822C2.82908 16.7628 7.11479 21.0485 12.3954 21.0485C17.676 21.0485 21.9617 16.7628 21.9617 11.4822C21.9617 10.0281 21.6269 8.65053 21.0434 7.4069ZM14.0695 11.31C14.6818 11.5204 15.5045 11.97 15.5045 13.3763C15.5045 14.5721 14.5574 15.5574 13.3999 15.5574H13.1129V15.7966C13.1129 16.1888 12.7876 16.514 12.3954 16.514C12.0032 16.514 11.6779 16.1888 11.6779 15.7966V15.5574H11.6014C10.3291 15.5574 9.28635 14.486 9.28635 13.1658C9.28635 12.764 9.61161 12.4388 10.0038 12.4388C10.396 12.4388 10.7213 12.764 10.7213 13.1563C10.7213 13.6824 11.1135 14.1129 11.6014 14.1129H11.6779V11.9892L10.7213 11.6544C10.1091 11.4439 9.28635 10.9943 9.28635 9.58803C9.28635 8.39224 10.2334 7.4069 11.3909 7.4069H11.6779V7.17731C11.6779 6.78509 12.0032 6.45984 12.3954 6.45984C12.7876 6.45984 13.1129 6.78509 13.1129 7.17731V7.41647H13.1894C14.4617 7.41647 15.5045 8.4879 15.5045 9.80805C15.5045 10.2003 15.1792 10.5255 14.787 10.5255C14.3948 10.5255 14.0695 10.2003 14.0695 9.80805C14.0695 9.28191 13.6773 8.85142 13.1894 8.85142H13.1129V10.9751L14.0695 11.31Z" fill="#008E10"/>
<path d="M10.7213 9.59755C10.7213 10.1141 10.8648 10.1907 11.1901 10.3055L11.6779 10.4777V8.85138H11.3909C11.0274 8.85138 10.7213 9.1862 10.7213 9.59755Z" fill="#008E10"/>
</svg>
