<svg width="22" height="14" viewBox="0 0 22 14" fill="none" xmlns="http://www.w3.org/2000/svg">
<path d="M21.7756 9.27365L18.792 5.39824L20.4924 0.987771C20.5327 0.882701 20.5459 0.767522 20.5306 0.654018C20.5154 0.540514 20.4722 0.432761 20.4056 0.341782C20.339 0.250803 20.2512 0.179864 20.1513 0.136224C20.0515 0.0925831 19.943 0.0778068 19.8372 0.0934073L1.19429 2.92573C0.877546 2.97386 0.594233 3.15468 0.40668 3.42843C0.219126 3.70218 0.142695 4.04642 0.1942 4.38544L1.3594 12.055C1.4109 12.394 1.58613 12.7 1.84652 12.9057C2.10691 13.1114 2.43114 13.1999 2.74789 13.1518L21.4087 10.3168C21.5141 10.3007 21.6131 10.2551 21.6956 10.1846C21.7781 10.114 21.8412 10.0211 21.8784 9.91512C21.9157 9.80917 21.9258 9.69401 21.9078 9.58134C21.8897 9.46868 21.8441 9.36252 21.7756 9.27365ZM7.36158 9.29916L6.69278 9.40077L4.32467 6.9227L4.74705 9.70291L4.07228 9.80543L3.47123 5.84922L4.146 5.7467L6.52106 8.23026L6.09867 5.45004L6.76748 5.34843L7.36158 9.29916ZM10.6385 5.4142L8.53061 5.73445L8.67529 6.68675L10.5862 6.39644L10.6833 7.03557L8.77239 7.32588L8.92872 8.35488L11.0366 8.03463L11.1337 8.67376L8.35105 9.09653L7.75874 5.19784L10.5355 4.77598L10.6385 5.4142ZM16.0899 7.96003L15.4151 8.06254L14.0439 5.26956L13.5659 8.35656L12.8971 8.45817L11.1028 4.6898L11.8313 4.57912L13.0497 7.29071L13.5272 4.32147L14.2557 4.21079L15.5577 6.90968L15.9217 3.95767L16.6562 3.84609L16.0899 7.96003Z" fill="#E10C0C"/>
</svg>
