<svg width="18" height="19" viewBox="0 0 18 19" fill="none" xmlns="http://www.w3.org/2000/svg">
<path d="M13.5001 5.995C13.4551 5.9875 13.4026 5.9875 13.3576 5.995C12.3226 5.9575 11.4976 5.11 11.4976 4.06C11.4976 2.9875 12.3601 2.125 13.4326 2.125C14.5051 2.125 15.3676 2.995 15.3676 4.06C15.3601 5.11 14.5351 5.9575 13.5001 5.995Z" stroke="#5E636D" stroke-linecap="round" stroke-linejoin="round"/>
<path d="M12.7276 11.455C13.7551 11.6275 14.8876 11.4475 15.6826 10.915C16.7401 10.21 16.7401 9.05501 15.6826 8.35001C14.8801 7.81751 13.7326 7.6375 12.7051 7.8175" stroke="#5E636D" stroke-linecap="round" stroke-linejoin="round"/>
<path d="M4.47761 5.995C4.52261 5.9875 4.57511 5.9875 4.62011 5.995C5.65511 5.9575 6.48011 5.11 6.48011 4.06C6.48011 2.9875 5.61761 2.125 4.54511 2.125C3.47261 2.125 2.61011 2.995 2.61011 4.06C2.61761 5.11 3.44261 5.9575 4.47761 5.995Z" stroke="#5E636D" stroke-linecap="round" stroke-linejoin="round"/>
<path d="M5.25008 11.455C4.22258 11.6275 3.09008 11.4475 2.29508 10.915C1.23758 10.21 1.23758 9.05501 2.29508 8.35001C3.09758 7.81751 4.24508 7.6375 5.27258 7.8175" stroke="#5E636D" stroke-linecap="round" stroke-linejoin="round"/>
<path d="M9.00006 11.5975C8.95506 11.59 8.90256 11.59 8.85756 11.5975C7.82256 11.56 6.99756 10.7125 6.99756 9.6625C6.99756 8.59 7.86006 7.7275 8.93256 7.7275C10.0051 7.7275 10.8676 8.5975 10.8676 9.6625C10.8601 10.7125 10.0351 11.5675 9.00006 11.5975Z" stroke="#5E636D" stroke-linecap="round" stroke-linejoin="round"/>
<path d="M6.81754 13.96C5.76004 14.665 5.76004 15.82 6.81754 16.525C8.01754 17.3275 9.98254 17.3275 11.1825 16.525C12.24 15.82 12.24 14.665 11.1825 13.96C9.99004 13.165 8.01754 13.165 6.81754 13.96Z" stroke="#5E636D" stroke-linecap="round" stroke-linejoin="round"/>
</svg>
