<svg width="37" height="37" viewBox="0 0 37 37" fill="none" xmlns="http://www.w3.org/2000/svg">
<rect width="37" height="37" rx="10" fill="#FF7171"/>
<path d="M26.3199 20.94L21.5199 12.3C20.8749 11.1375 19.9824 10.5 18.9999 10.5C18.0174 10.5 17.1249 11.1375 16.4799 12.3L11.6799 20.94C11.0724 22.0425 11.0049 23.1 11.4924 23.9325C11.9799 24.765 12.9399 25.2225 14.1999 25.2225H23.7999C25.0599 25.2225 26.0199 24.765 26.5074 23.9325C26.9949 23.1 26.9274 22.035 26.3199 20.94ZM18.4374 15.75C18.4374 15.4425 18.6924 15.1875 18.9999 15.1875C19.3074 15.1875 19.5624 15.4425 19.5624 15.75V19.5C19.5624 19.8075 19.3074 20.0625 18.9999 20.0625C18.6924 20.0625 18.4374 19.8075 18.4374 19.5V15.75ZM19.5324 22.2825C19.4949 22.3125 19.4574 22.3425 19.4199 22.3725C19.3749 22.4025 19.3299 22.425 19.2849 22.44C19.2399 22.4625 19.1949 22.4775 19.1424 22.485C19.0974 22.4925 19.0449 22.5 18.9999 22.5C18.9549 22.5 18.9024 22.4925 18.8499 22.485C18.8049 22.4775 18.7599 22.4625 18.7149 22.44C18.6699 22.425 18.6249 22.4025 18.5799 22.3725C18.5424 22.3425 18.5049 22.3125 18.4674 22.2825C18.3324 22.14 18.2499 21.945 18.2499 21.75C18.2499 21.555 18.3324 21.36 18.4674 21.2175C18.5049 21.1875 18.5424 21.1575 18.5799 21.1275C18.6249 21.0975 18.6699 21.075 18.7149 21.06C18.7599 21.0375 18.8049 21.0225 18.8499 21.015C18.9474 20.9925 19.0524 20.9925 19.1424 21.015C19.1949 21.0225 19.2399 21.0375 19.2849 21.06C19.3299 21.075 19.3749 21.0975 19.4199 21.1275C19.4574 21.1575 19.4949 21.1875 19.5324 21.2175C19.6674 21.36 19.7499 21.555 19.7499 21.75C19.7499 21.945 19.6674 22.14 19.5324 22.2825Z" fill="white"/>
</svg>
