<svg width="48" height="48" viewBox="0 0 48 48" fill="none" xmlns="http://www.w3.org/2000/svg">
<rect width="48" height="48" rx="8" fill="#F8F8F9"/>
<path d="M23.9999 24.9396C26.897 25.203 28.4992 27.4636 28.9382 28.561C23.9999 31.5241 20.159 29.3291 18.7324 28.2318C19.2811 27.0246 21.1028 24.6762 23.9999 24.9396Z" fill="#377DFF" fill-opacity="0.15"/>
<path fill-rule="evenodd" clip-rule="evenodd" d="M27.1791 20.66C27.1791 22.4783 25.7051 23.9522 23.8869 23.9522C22.0687 23.9522 20.5947 22.4783 20.5947 20.66C20.5947 18.8418 22.0687 17.3679 23.8869 17.3679C25.7051 17.3679 27.1791 18.8418 27.1791 20.66ZM26.5207 20.66C26.5207 22.1146 25.3415 23.2938 23.8869 23.2938C22.4324 23.2938 21.2532 22.1146 21.2532 20.66C21.2532 19.2054 22.4324 18.0263 23.8869 18.0263C25.3415 18.0263 26.5207 19.2054 26.5207 20.66Z" fill="#3772FF"/>
<path fill-rule="evenodd" clip-rule="evenodd" d="M19.1173 29.0135C18.8246 28.8472 18.5503 28.6914 18.29 28.5613C19.1597 26.3697 21.3855 24.6106 23.8868 24.6106C26.3256 24.6106 28.5742 26.4562 29.4834 28.5613C29.2348 28.6856 28.9696 28.8334 28.6862 28.9913C27.4683 29.67 25.9132 30.5366 23.8868 30.5366C21.7982 30.5366 20.3058 29.6887 19.1173 29.0135ZM23.8868 25.2691C25.8044 25.2691 27.6578 26.6051 28.6081 28.2795C28.5101 28.3333 28.4111 28.3882 28.3111 28.4437C27.0988 29.1161 25.7249 29.8782 23.8868 29.8782C21.9893 29.8782 20.6794 29.1373 19.5001 28.4704L19.4988 28.4697C19.3806 28.4028 19.2637 28.3367 19.1476 28.2722C20.055 26.5561 21.8919 25.2691 23.8868 25.2691Z" fill="#3772FF"/>
<path d="M19.0987 26.0164C18.3364 26.1808 17.6559 26.5653 17.127 27.1L18.1077 27.6084L17.8132 28.1973L16.0986 27.3239C16.9248 26.0853 18.3346 25.2693 19.9351 25.2691C19.6355 25.4942 19.3556 25.7444 19.0987 26.0164Z" fill="#3772FF"/>
<path d="M30.645 27.1C30.1161 26.5653 29.4356 26.1808 28.6733 26.0164C28.4164 25.7444 28.1366 25.4942 27.8369 25.2691C29.4374 25.2693 30.8472 26.0853 31.6734 27.3239L29.9588 28.1973L29.6644 27.6084L30.645 27.1Z" fill="#3772FF"/>
<path d="M26.6085 23.5235C26.9458 23.7919 27.3729 23.9522 27.8374 23.9522C28.9283 23.9522 29.8127 23.0679 29.8127 21.9769C29.8127 20.886 28.9283 20.0016 27.8374 20.0016C27.8191 20.0016 27.8009 20.0019 27.7829 20.0023C27.7454 19.7788 27.6891 19.5615 27.6158 19.3524C27.6888 19.3463 27.7627 19.3432 27.8374 19.3432C29.292 19.3432 30.4711 20.5224 30.4711 21.9769C30.4711 23.4315 29.292 24.6106 27.8374 24.6106C27.1645 24.6106 26.5505 24.3583 26.085 23.9431C26.2713 23.8181 26.4464 23.6776 26.6085 23.5235Z" fill="#3772FF"/>
<path d="M19.9355 20.0016C19.9537 20.0016 19.9719 20.0019 19.99 20.0023C20.0274 19.7788 20.0837 19.5615 20.1571 19.3524C20.084 19.3463 20.0101 19.3432 19.9355 19.3432C18.4809 19.3432 17.3018 20.5224 17.3018 21.9769C17.3018 23.4315 18.4809 24.6106 19.9355 24.6106C20.6084 24.6106 21.2223 24.3583 21.6879 23.9431C21.5015 23.8181 21.3264 23.6776 21.1644 23.5235C20.8271 23.7919 20.4 23.9522 19.9355 23.9522C18.8446 23.9522 17.9602 23.0679 17.9602 21.9769C17.9602 20.886 18.8446 20.0016 19.9355 20.0016Z" fill="#3772FF"/>
<path fill-rule="evenodd" clip-rule="evenodd" d="M33.9613 17.9309L24.1401 12.2527C19.5142 9.57822 13.7286 12.9202 13.7286 18.2737V29.6302C13.7286 34.9837 19.5142 38.3257 24.1401 35.6512L33.9613 29.973C38.5893 27.2972 38.5893 20.6067 33.9613 17.9309ZM24.5356 11.5687C19.3813 8.58868 12.9385 12.3137 12.9385 18.2737V29.6302C12.9385 35.5902 19.3813 39.3152 24.5356 36.3353L34.3567 30.657C39.511 27.677 39.511 20.227 34.3567 17.2469L24.5356 11.5687Z" fill="#3772FF"/>
<path fill-rule="evenodd" clip-rule="evenodd" d="M23.8607 12.2527L14.0395 17.9309C9.41143 20.6067 9.41143 27.2972 14.0395 29.973L23.8607 35.6512C28.4865 38.3257 34.2722 34.9837 34.2722 29.6302V18.2737C34.2722 12.9202 28.4865 9.57822 23.8607 12.2527ZM23.4652 11.5687C28.6195 8.58868 35.0623 12.3137 35.0623 18.2737V29.6302C35.0623 35.5902 28.6194 39.3152 23.4652 36.3353L13.644 30.657C8.48975 27.677 8.48976 20.227 13.644 17.2469L23.4652 11.5687Z" fill="#3772FF"/>
<path fill-rule="evenodd" clip-rule="evenodd" d="M24.3872 11.7213C24.1467 11.586 23.853 11.586 23.6124 11.7213L13.8676 17.2027C13.6188 17.3427 13.4648 17.606 13.4648 17.8914V29.4775C13.4648 29.7629 13.6188 30.0262 13.8676 30.1661L23.6124 35.6476C23.853 35.7829 24.1467 35.7829 24.3872 35.6476L34.1321 30.1661C34.3808 30.0262 34.5348 29.7629 34.5348 29.4775V17.8914C34.5348 17.606 34.3808 17.3427 34.1321 17.2027L24.3872 11.7213ZM24.321 14.3918C24.067 14.2355 23.7468 14.2355 23.4928 14.3918L15.7233 19.1731C15.4896 19.3169 15.3472 19.5716 15.3472 19.846V28.1811C15.3472 28.4555 15.4896 28.7102 15.7233 28.854L23.4928 33.6352C23.7468 33.7915 24.067 33.7915 24.321 33.6352L32.0905 28.854C32.3242 28.7102 32.4666 28.4555 32.4666 28.1811V19.846C32.4666 19.5716 32.3242 19.3169 32.0905 19.1731L24.321 14.3918Z" fill="#377DFF" fill-opacity="0.15"/>
</svg>
