<svg width="80" height="80" viewBox="0 0 80 80" fill="none" xmlns="http://www.w3.org/2000/svg">
<g clip-path="url(#clip0_1385_17152)">
<path d="M68.7538 40.21C68.6321 44.5442 67.5373 48.7955 65.5503 52.6494C63.5634 56.5032 60.7352 59.8608 57.275 62.4738L49.2188 54.32V76.1375H70.775L62.5863 67.85C66.8432 64.4465 70.2827 60.1318 72.6517 55.2234C75.0207 50.3149 76.2589 44.9377 76.275 39.4875C76.2311 37.0875 75.9696 34.6965 75.4938 32.3438L68.7538 40.21Z" fill="#008E10"/>
<path d="M76.2235 38.0125C76.1031 36.1091 75.8593 34.2155 75.4935 32.3438L68.7535 40.21C68.7335 40.9712 68.6723 41.7275 68.5923 42.4788C71.0923 40.9163 73.6498 39.4513 76.2235 38.0125Z" fill="#54FF67"/>
<path d="M76.0411 43.4262C76.1486 42.3737 76.2236 41.3162 76.2373 40.2487C73.5336 41.7674 70.8548 43.3262 68.2473 45.0062C68.1636 45.4562 68.0386 45.8937 67.9336 46.3374C70.5911 45.2387 73.2936 44.2499 76.0411 43.4262Z" fill="#54FF67" fill-opacity="0.46"/>
<path d="M75.3476 47.6412C75.5251 46.8499 75.6851 46.0537 75.8088 45.2487C72.9429 46.1579 70.1255 47.2134 67.3676 48.4112C67.2601 48.7512 67.1263 49.0812 67.0063 49.4112C69.737 48.6072 72.5257 48.0155 75.3476 47.6412Z" fill="#54FF67" fill-opacity="0.46"/>
<path d="M69.9391 39.4224L72.5503 36.8099C79.7628 29.5974 79.0503 17.1974 70.9728 9.11367C62.8953 1.02992 50.4878 0.323666 43.2753 7.53617L40.6641 10.1474L69.9391 39.4224Z" fill="#DDB96F"/>
<path d="M46.9366 14.1525C49.1457 11.5508 51.3941 8.97955 53.6816 6.43871C54.8303 5.15496 56.0103 3.89121 57.1941 2.62996C54.6568 2.38584 52.0968 2.69839 49.6928 3.54578C47.2888 4.39318 45.0987 5.755 43.2753 7.53621L40.6641 10.1475L45.9141 15.3975C46.2566 14.9825 46.5916 14.5587 46.9366 14.1525Z" fill="#CC9966"/>
<path d="M77.0402 21.4875C74.3502 24.6813 71.7427 27.9425 69.1127 31.1863C68.0068 32.5488 66.8939 33.9059 65.7739 35.2575L69.9389 39.4225L72.5502 36.81C74.5236 34.7751 75.9811 32.2972 76.801 29.5837C77.6208 26.8701 77.7791 23.9998 77.2627 21.2125C77.1864 21.3025 77.1164 21.3975 77.0402 21.4875Z" fill="#CC9966"/>
<path d="M65.6051 26.1774C68.2126 22.9562 70.8788 19.7799 73.4876 16.5599C74.0076 15.9187 74.5151 15.2687 75.0263 14.6212C72.5694 9.94552 68.5638 6.26911 63.6951 4.22119C61.7138 6.31994 59.7851 8.47119 57.8601 10.6174C55.5201 13.2316 53.2121 15.8733 50.9363 18.5424C50.6501 18.8799 50.3713 19.2287 50.0913 19.5749L61.5913 31.0749C62.9451 29.4562 64.2763 27.8187 65.6051 26.1774Z" fill="#FFFDF0"/>
<path d="M11.2614 40.2412C11.2614 40.0937 11.2501 39.9487 11.2501 39.8C11.2392 36.03 11.9749 32.2951 13.4149 28.8109C14.855 25.3267 16.9707 22.1622 19.6401 19.5L27.8789 27.8375V6.02625H6.32014L14.3676 14.17C10.9907 17.5275 8.31342 21.5217 6.49089 25.9212C4.66836 30.3206 3.7368 35.038 3.75014 39.8C3.78191 42.2813 4.04345 44.7544 4.53139 47.1875L11.2614 40.2412Z" fill="#008E10"/>
<path d="M11.3164 38.4463C10.9139 38.5713 10.5114 38.6963 10.1089 38.8488C7.96262 39.6538 5.90512 40.6688 3.80762 41.59C3.9253 43.4698 4.16708 45.3397 4.53137 47.1875L11.2614 40.2413C11.2614 40.0938 11.2501 39.9488 11.2501 39.8C11.2501 39.345 11.2951 38.8988 11.3164 38.4463Z" fill="#54FF67"/>
<path d="M4.0425 35.25C3.85234 36.7518 3.75466 38.2638 3.75 39.7775C5.71125 38.9025 7.64625 37.9675 9.6575 37.2125C10.2487 36.99 10.8412 36.8038 11.435 36.6363C11.5162 35.8863 11.6337 35.1525 11.7712 34.4213C9.17569 34.4704 6.58947 34.7477 4.0425 35.25Z" fill="#54FF67" fill-opacity="0.46"/>
<path d="M4.80006 31.1912C4.61756 31.9412 4.44506 32.6987 4.31006 33.4649C6.90349 33.0068 9.5293 32.756 12.1626 32.7149C12.2751 32.2662 12.4126 31.8249 12.5451 31.3837C9.96894 31.1764 7.3833 31.1121 4.80006 31.1912Z" fill="#54FF67" fill-opacity="0.46"/>
<path d="M37.4085 71.8662L40.021 69.2537C47.2335 62.0412 46.521 49.6412 38.4422 41.5575C30.3635 33.4737 17.9585 32.7662 10.7497 39.9787L8.13721 42.5912L37.4085 71.8662Z" fill="#DDB96F"/>
<path d="M22.9447 35.0201C18.3848 34.9998 14.0016 36.7821 10.7497 39.9788L8.13721 42.5913L12.806 47.2588C16.236 43.2263 19.5522 39.0876 22.9447 35.0201Z" fill="#CC9966"/>
<path d="M27.413 60.7575C28.9305 58.7325 30.3342 56.6138 31.913 54.6325C34.7717 51.0688 37.663 47.53 40.503 43.9513C39.8702 43.1051 39.1802 42.3033 38.438 41.5513C35.9927 39.0904 33.0131 37.2263 29.7305 36.1038C25.398 41.1375 21.2855 46.3725 16.9805 51.4325L26.928 61.3788C27.0892 61.1763 27.2505 60.9688 27.413 60.7575Z" fill="#FFFDF0"/>
<path d="M36.3351 58.5263L36.1963 58.69L36.1788 58.715C36.0426 58.9 35.9063 59.0825 35.7713 59.2675C35.3713 59.8138 34.9788 60.3638 34.5838 60.9125C33.6176 62.2538 32.6426 63.5888 31.6338 64.9C31.4688 65.1138 31.2963 65.345 31.1226 65.5788L37.4088 71.8663L40.0213 69.2538C45.1251 64.15 46.2438 56.45 43.6076 49.5188C41.2188 52.55 38.8213 55.5763 36.3351 58.5263Z" fill="#CC9966"/>
<path d="M36.5275 72.7291C43.5588 65.6977 42.7065 53.4455 34.6239 45.3628C26.5412 37.2802 14.289 36.4279 7.25767 43.4592C0.226366 50.4906 1.07863 62.7428 9.16127 70.8255C17.2439 78.9081 29.4962 79.7604 36.5275 72.7291Z" fill="#FFF9C7"/>
<path d="M33.5983 70.7802C39.2771 65.1014 38.4205 55.0376 31.6849 48.302C24.9494 41.5665 14.8856 40.7099 9.20675 46.3887C3.52792 52.0675 4.38454 62.1314 11.1201 68.8669C17.8556 75.6024 27.9194 76.459 33.5983 70.7802Z" fill="#DDB96F"/>
<path d="M69.0568 40.2942C76.0881 33.2629 75.2358 21.0107 67.1532 12.928C59.0705 4.8454 46.8183 3.99313 39.787 11.0244C32.7557 18.0557 33.6079 30.308 41.6906 38.3906C49.7732 46.4733 62.0255 47.3255 69.0568 40.2942Z" fill="#FFF9C7"/>
<path d="M66.1275 38.3448C71.8064 32.666 70.9498 22.6021 64.2142 15.8666C57.4787 9.13108 47.4149 8.27446 41.736 13.9533C36.0572 19.6321 36.9138 29.6959 43.6494 36.4315C50.3849 43.167 60.4487 44.0236 66.1275 38.3448Z" fill="#DDB96F"/>
<path fill-rule="evenodd" clip-rule="evenodd" d="M49.4531 16.1443L47.7853 13.9606L47.8558 16.1021L46.2918 15.5126L46.8173 16.934L45.3988 16.3993L45.9862 17.9882L43.868 17.8867L46.0477 19.5276L46.0992 19.4764C46.3715 18.8492 46.8406 18.1692 47.4682 17.5456C48.0961 16.9216 48.7793 16.4568 49.4085 16.1885L49.4531 16.1443ZM43.9762 23.0932L49.8706 29.0251L46.5376 32.337L48.4206 34.232L51.7536 30.9201L52.3304 31.5006L48.9972 34.8127L50.8802 36.7077L54.2134 33.3956L56.7737 35.9722L59.112 33.6487L53.9931 28.4971L55.7285 26.7726C56.1913 26.3128 56.6415 26.0107 57.079 25.8664C57.5287 25.71 58.0628 25.7238 58.6814 25.9079L64.9944 27.8036L67.5702 25.2441L63.6091 24.0599L65.783 21.8998L63.8999 20.0047L60.6484 23.2357C60.2381 23.177 59.8523 23.1758 59.4909 23.2322L63.3234 19.424L61.4404 17.5289L59.3526 19.6034C59.1326 18.6766 58.6209 17.8089 57.8174 17.0002C56.6072 15.7824 55.2857 15.2197 53.8528 15.3123C52.4079 15.3927 50.979 16.1347 49.5663 17.5385L43.9762 23.0932ZM55.1184 23.9298L52.2686 26.7616L48.148 22.6148L50.9978 19.783C52.7028 18.0887 54.2391 17.9297 55.6066 19.3059C56.9862 20.6943 56.8234 22.2356 55.1184 23.9298Z" fill="#C48B58"/>
<path d="M26.8173 73.0338C15.5998 73.0338 7.29227 63.865 6.80727 53.0238C6.75612 51.7856 6.84206 50.5456 7.06352 49.3263C3.96852 55.1163 5.44352 63.19 11.1248 68.875C17.131 74.875 25.8073 76.1925 31.6348 72.375C30.0644 72.8032 28.4449 73.0246 26.8173 73.0338Z" fill="#C48B58"/>
<path d="M58.6715 40.1251C47.4527 40.1251 39.1465 30.9563 38.6602 20.1138C38.644 19.7388 38.669 19.3763 38.6765 19.0076C36.8927 24.5363 38.6415 31.4176 43.6565 36.4326C50.2165 42.9913 59.959 43.9526 65.6977 38.7363C63.4635 39.636 61.0799 40.1071 58.6715 40.1251Z" fill="#C48B58"/>
<path fill-rule="evenodd" clip-rule="evenodd" d="M48.9168 16.8343L47.1677 14.5846L47.3127 16.7366L45.7231 16.0907L46.2995 17.5354L44.8579 16.9496L45.5023 18.565L43.3735 18.3896L45.6174 20.1124L45.6674 20.0627C45.9189 19.4426 46.3659 18.7763 46.974 18.172C47.5823 17.5676 48.2517 17.1247 48.8736 16.8772L48.9168 16.8343ZM43.6738 23.8306L49.6815 29.8767L46.5516 32.9868L48.5066 34.9543L51.6366 31.8442L52.2356 32.4471L49.1057 35.5572L51.0607 37.5247L54.1906 34.4146L56.9606 37.2022L59.3883 34.7898L54.0736 29.4412L55.8754 27.6508C56.3559 27.1733 56.8233 26.8597 57.2775 26.7099C57.7444 26.5475 58.2989 26.5619 58.9412 26.753L60.8588 27.3288L61.0889 27.5603L61.2144 27.4356L65.4956 28.7212L68.1699 26.0638L63.8843 24.7826L65.4998 23.1773L63.5448 21.2098L60.783 23.9542C60.3246 23.9081 59.8968 23.9338 59.4995 24.0314L62.9458 20.6069L60.9908 18.6394L59.5921 20.0292C59.3426 19.1337 58.8266 18.2922 58.0441 17.5047C56.7877 16.2403 55.4156 15.6561 53.928 15.7522C52.4278 15.8357 50.9443 16.6061 49.4776 18.0636L43.6738 23.8306ZM55.242 24.6993L52.2832 27.6394L48.005 23.3339L50.9638 20.3939C52.734 18.6349 54.329 18.4698 55.7488 19.8986C57.1811 21.34 57.0122 22.9403 55.242 24.6993Z" fill="#FFF9C7"/>
<path fill-rule="evenodd" clip-rule="evenodd" d="M17.4433 65.4018L19.939 69.3576L22.8667 67.5105L20.3711 63.555L24.4457 60.9849L30.0435 62.9825L32.3612 61.5203L29.8663 57.5658L32.5439 55.8768L30.9767 53.3922L28.2988 55.0813L27.8689 54.3999L30.5467 52.7108L28.9795 50.2262L26.3014 51.9155L23.3181 47.187L20.3905 49.0341L23.3736 53.7623L19.9233 55.9386L13.234 53.5492L10.896 55.0243L13.8784 59.7515L11.4261 61.2984L12.9933 63.7829L15.4459 62.2359L15.8758 62.9174L13.4233 64.4644L14.9905 66.9489L17.4433 65.4018ZM18.8037 61.0706L20.929 59.73L19.9645 59.3857L18.3737 60.3891L18.8037 61.0706ZM23.4388 57.1943L24.403 57.5387L25.371 56.9281L24.941 56.2467L23.4388 57.1943Z" fill="#C48B58"/>
<path fill-rule="evenodd" clip-rule="evenodd" d="M16.7365 65.909L19.2324 69.865L22.16 68.0179L19.6643 64.0622L23.7387 61.4922L29.3368 63.49L31.6546 62.0277L29.1595 58.073L31.639 56.509L30.0717 54.0244L27.592 55.5885L27.1622 54.9073L29.6418 53.3432L28.0746 50.8586L25.5947 52.4228L22.6115 47.6944L19.6839 49.5415L22.6669 54.2696L19.2166 56.4459L12.5274 54.0566L10.1893 55.5317L13.1717 60.2588L10.9118 61.6843L12.479 64.1689L14.7392 62.7433L15.169 63.4245L12.9089 64.8501L14.4762 67.3347L16.7365 65.909ZM18.0969 61.5777L20.222 60.2373L19.2577 59.8931L17.667 60.8965L18.0969 61.5777ZM22.732 57.7016L23.696 58.046L24.6642 57.4353L24.2344 56.754L22.732 57.7016Z" fill="#FFF9C7"/>
</g>
<defs>
<clipPath id="clip0_1385_17152">
<rect width="80" height="80" fill="white"/>
</clipPath>
</defs>
</svg>
