<svg width="37" height="37" viewBox="0 0 37 37" fill="none" xmlns="http://www.w3.org/2000/svg">
<rect width="37" height="37" rx="10" fill="#FFC700"/>
<path d="M26.5 21.25C26.5 24.1525 24.1525 26.5 21.25 26.5L22.0375 25.1875" stroke="white" stroke-width="1.5" stroke-linecap="round" stroke-linejoin="round"/>
<path d="M11.5 16.75C11.5 13.8475 13.8475 11.5 16.75 11.5L15.9625 12.8125" stroke="white" stroke-width="1.5" stroke-linecap="round" stroke-linejoin="round"/>
<path d="M26.5 13.15V13.2325C26.5 13.4425 26.335 13.6075 26.125 13.6075H19.375C19.165 13.6075 19 13.4425 19 13.2325V13.15C19 11.83 19.33 11.5 20.665 11.5H24.835C26.17 11.5 26.5 11.83 26.5 13.15Z" fill="white"/>
<path d="M19.375 14.3575C19.165 14.3575 19 14.5225 19 14.7325V15.4825V16.225C19 17.545 19.33 17.875 20.665 17.875H24.835C26.17 17.875 26.5 17.545 26.5 16.225V15.4825V14.7325C26.5 14.5225 26.335 14.3575 26.125 14.3575H19.375Z" fill="white"/>
<path d="M19 21.775V21.8575C19 22.0675 18.835 22.2325 18.625 22.2325H11.875C11.665 22.2325 11.5 22.0675 11.5 21.8575V21.775C11.5 20.455 11.83 20.125 13.165 20.125H17.335C18.67 20.125 19 20.455 19 21.775Z" fill="white"/>
<path d="M11.875 22.9825C11.665 22.9825 11.5 23.1475 11.5 23.3575V24.1075V24.85C11.5 26.17 11.83 26.5 13.165 26.5H17.335C18.67 26.5 19 26.17 19 24.85V24.1075V23.3575C19 23.1475 18.835 22.9825 18.625 22.9825H11.875Z" fill="white"/>
</svg>
