<svg width="41" height="41" viewBox="0 0 41 41" fill="none" xmlns="http://www.w3.org/2000/svg">
<rect width="40.5479" height="40.5479" rx="6.75799" fill="white"/>
<path d="M16.2782 12.9957C16.0869 13.1062 16.0213 13.3508 16.1318 13.5422C16.2423 13.7334 16.4869 13.799 16.6782 13.6886L22.2208 10.4885C22.4121 10.3781 22.4777 10.1334 22.3672 9.94213C22.2567 9.75081 22.0121 9.68527 21.8208 9.79572L16.2782 12.9957Z" fill="#FFA500"/>
<path d="M16.9321 14.9277C16.8216 14.7364 16.8872 14.4918 17.0785 14.3813L20.5426 12.3813C20.7339 12.2708 20.9786 12.3364 21.089 12.5277C21.1995 12.719 21.1339 12.9636 20.9426 13.0741L17.4785 15.0741C17.2872 15.1846 17.0426 15.119 16.9321 14.9277Z" fill="#FFA500"/>
<path fill-rule="evenodd" clip-rule="evenodd" d="M26.4001 27.9998V23.9998C26.4001 23.558 26.042 23.1998 25.6001 23.1998H14.4001C13.9583 23.1998 13.6001 23.558 13.6001 23.9998V27.9998C13.6001 28.4417 13.9583 28.7998 14.4001 28.7998H25.6001C26.042 28.7998 26.4001 28.4417 26.4001 27.9998ZM25.6001 23.9998H14.4001V27.9998H25.6001V23.9998Z" fill="#FFA500"/>
<path fill-rule="evenodd" clip-rule="evenodd" d="M13.2002 12.4637L15.2418 15.9999H8.0002C7.55837 15.9999 7.2002 16.3581 7.2002 16.7999V19.1999C7.2002 19.6417 7.55837 19.9999 8.0002 19.9999H9.6002V31.1999C9.6002 32.0835 10.3165 32.7999 11.2002 32.7999H28.8002C29.6838 32.7999 30.4002 32.0835 30.4002 31.1999V19.9999H32.0002C32.442 19.9999 32.8002 19.6417 32.8002 19.1999V16.7999C32.8002 16.3581 32.442 15.9999 32.0002 15.9999H23.14L27.2119 13.6489C27.5946 13.428 27.7256 12.9387 27.5048 12.5561L23.8886 6.29271C23.6676 5.91008 23.1784 5.77898 22.7958 5.99989L13.493 11.3708C13.1104 11.5917 12.9793 12.081 13.2002 12.4637ZM23.1958 6.69271L13.893 12.0637L16.1656 15.9999H21.54L26.8119 12.9561L23.1958 6.69271ZM10.4002 31.1999V19.9999H29.6002V31.1999C29.6002 31.6417 29.242 31.9999 28.8002 31.9999H11.2002C10.7584 31.9999 10.4002 31.6417 10.4002 31.1999ZM32.0002 16.7999V19.1999H30.5042C30.5028 19.1999 30.5015 19.1999 30.5002 19.1999H9.5002C9.49886 19.1999 9.49754 19.1999 9.49621 19.1999H8.0002V16.7999H32.0002Z" fill="#FFA500"/>
<path d="M13.4929 11.3708C13.1103 11.5917 12.9792 12.081 13.2001 12.4637L15.7036 16.7999H21.7542L27.2118 13.6489C27.5944 13.428 27.7256 12.9387 27.5046 12.5561L23.8884 6.29271C23.6675 5.91008 23.1782 5.77898 22.7956 5.99989L13.4929 11.3708Z" fill="#FFA500" fill-opacity="0.15"/>
<path fill-rule="evenodd" clip-rule="evenodd" d="M30.4001 20H9.6001V31.2941C9.6001 32.1258 10.3164 32.8 11.2001 32.8H28.8001C29.6838 32.8 30.4001 32.1258 30.4001 31.2941V20ZM14.4001 23.2C13.9583 23.2 13.6001 23.5582 13.6001 24V28C13.6001 28.4418 13.9583 28.8 14.4001 28.8H25.6001C26.0419 28.8 26.4001 28.4418 26.4001 28V24C26.4001 23.5582 26.0419 23.2 25.6001 23.2H14.4001Z" fill="#FFA500" fill-opacity="0.15"/>
</svg>
