<svg width="34" height="34" viewBox="0 0 34 34" fill="none" xmlns="http://www.w3.org/2000/svg">
<rect width="34" height="34" rx="17" fill="#FFA500" fill-opacity="0.41"/>
<path fill-rule="evenodd" clip-rule="evenodd" d="M24.3586 16.3143C24.3535 16.3255 24.3484 16.3368 24.3436 16.3482C24.3387 16.3601 24.3349 16.3725 24.3311 16.3848C24.3249 16.4049 24.3187 16.4249 24.3081 16.4425C24.2872 16.4772 24.2598 16.5063 24.2323 16.5356C24.2245 16.5439 24.2167 16.5523 24.209 16.5607C24.2004 16.5696 24.1928 16.5793 24.1852 16.5891C24.1747 16.6026 24.1641 16.6162 24.1509 16.6273C24.1112 16.6597 24.0654 16.6823 24.0197 16.7047C24.0164 16.7063 24.0132 16.7079 24.0099 16.7095C24.0003 16.7142 23.9911 16.7201 23.9819 16.726C23.9689 16.7344 23.9558 16.7428 23.9412 16.7477C23.8647 16.7761 23.7833 16.7917 23.699 16.7917C23.6607 16.7917 23.6211 16.7888 23.5821 16.7817L20.5717 16.2824C20.1856 16.2186 19.925 15.8538 19.9887 15.4678C20.0525 15.0825 20.4166 14.8182 20.8033 14.8855L21.9678 15.0782C21.0859 13.5298 19.4022 12.5417 17.5492 12.5417C15.4533 12.5417 13.6066 13.7586 12.8438 15.6406C12.7326 15.9169 12.4669 16.0833 12.1871 16.0833C12.0986 16.0833 12.0086 16.067 11.9215 16.0316C11.5589 15.885 11.3839 15.472 11.5312 15.1094C12.5116 12.689 14.8738 11.125 17.5492 11.125C19.9661 11.125 22.1626 12.4496 23.2711 14.5165L23.5325 13.119C23.6048 12.735 23.9759 12.4807 24.3591 12.5544C24.7438 12.626 24.9973 12.9964 24.9251 13.381L24.3946 16.2144C24.3878 16.2505 24.3732 16.2824 24.3586 16.3143ZM22.1562 19.3595C22.3028 18.9961 22.7164 18.8219 23.0784 18.9685C23.4411 19.1151 23.616 19.5281 23.4687 19.8908C22.4884 22.3111 20.1261 23.8751 17.4507 23.8751C15.0339 23.8751 12.8373 22.5506 11.7288 20.4836L11.4667 21.8805C11.4037 22.2212 11.1062 22.4585 10.7711 22.4585C10.7279 22.4585 10.684 22.4542 10.6401 22.4457C10.2554 22.3742 10.0026 22.0037 10.0748 21.6191L10.6054 18.7858C10.6107 18.7579 10.6227 18.7333 10.6346 18.7084C10.6416 18.6941 10.6485 18.6797 10.6542 18.6646C10.6598 18.6505 10.6647 18.6359 10.6696 18.6213C10.6802 18.5896 10.6909 18.5579 10.7088 18.5308C10.7192 18.5147 10.7329 18.5017 10.7467 18.4888C10.7553 18.4806 10.7639 18.4725 10.7718 18.4635C10.7781 18.4563 10.7842 18.449 10.7904 18.4417C10.8241 18.402 10.8575 18.3626 10.9 18.3338C10.9042 18.3308 10.9092 18.329 10.9141 18.3272C10.9184 18.3256 10.9226 18.3241 10.9262 18.3218C10.9949 18.2772 11.0686 18.2425 11.1501 18.2248C11.155 18.2236 11.1602 18.2239 11.1654 18.2242C11.1698 18.2245 11.1742 18.2247 11.1784 18.2241C11.2563 18.2113 11.3349 18.2035 11.4178 18.2177L14.4282 18.7178C14.8143 18.7808 15.0749 19.1463 15.0112 19.5323C14.9538 19.8787 14.6535 20.1245 14.3128 20.1245C14.2745 20.1245 14.2356 20.1217 14.1966 20.1146L13.0321 19.9219C13.914 21.4704 15.5977 22.4585 17.4507 22.4585C19.5467 22.4585 21.3933 21.2416 22.1562 19.3595Z" fill="#E39C19"/>
</svg>
