<svg width="156" height="128" viewBox="0 0 156 128" fill="none" xmlns="http://www.w3.org/2000/svg">
<path d="M155.351 126.156C159.113 118.71 148.36 81.48 73.7998 81.48C19.9822 81.48 -4.71855 111.953 0.742304 127.397" fill="url(#paint0_radial_955_15181)"/>
<mask id="mask0_955_15181" style="mask-type:alpha" maskUnits="userSpaceOnUse" x="0" y="81" width="156" height="47">
<path d="M155.351 126.156C159.113 118.71 148.36 81.48 73.7998 81.48C19.9822 81.48 -4.71855 111.953 0.742304 127.397" fill="white"/>
</mask>
<g mask="url(#mask0_955_15181)">
<ellipse opacity="0.671968" cx="62.3002" cy="102.358" rx="4.10047" ry="2.27761" fill="url(#paint1_linear_955_15181)"/>
<ellipse opacity="0.729957" cx="104.152" cy="98.8812" rx="6.46963" ry="3.55307" fill="url(#paint2_linear_955_15181)"/>
<ellipse opacity="0.729957" cx="30.5258" cy="89.4059" rx="6.46963" ry="3.55307" fill="url(#paint3_linear_955_15181)"/>
</g>
<g opacity="0.320685">
<ellipse cx="120.998" cy="19.3818" rx="4.37383" ry="4.37301" fill="url(#paint4_linear_955_15181)"/>
<path d="M118.255 15.9141C116.378 15.6495 115.006 15.8569 114.748 16.5645C114.335 17.6993 116.945 19.6906 120.577 21.0122C124.208 22.3339 127.487 22.4854 127.901 21.3506C128.16 20.6366 126.969 19.6376 125.334 18.6256" stroke="url(#paint5_linear_955_15181)" stroke-width="2.18692"/>
<path d="M125.381 19.3818C125.381 16.9667 123.423 15.0088 121.007 15.0088C118.592 15.0088 117.079 16.5529 116.767 18.294C116.767 18.294 119.281 19.868 120.442 20.2063C120.812 20.3142 121.179 20.4542 121.553 20.5783C121.971 20.7171 122.397 20.8395 122.828 20.9457C123.122 21.0184 123.526 21.1307 123.904 21.2009C124.401 21.2934 124.847 21.3347 124.882 21.3347C124.944 21.3347 125.011 21.0597 125.15 20.7393C125.29 20.4189 125.381 19.3818 125.381 19.3818Z" fill="url(#paint6_linear_955_15181)"/>
</g>
<circle opacity="0.418364" cx="24.8998" cy="45.1801" r="5.1" fill="url(#paint7_linear_955_15181)"/>
<ellipse opacity="0.5" cx="80.0998" cy="88.68" rx="15.3" ry="4.2" fill="url(#paint8_linear_955_15181)"/>
<path d="M74.2349 2.19336L75.9263 2.809L44.6315 88.7909C44.4615 89.2579 43.945 89.4988 43.4779 89.3288C43.0108 89.1588 42.77 88.6423 42.94 88.1752L74.2349 2.19336Z" fill="#D8D8D8"/>
<path d="M74.1924 2.23486L87.4745 10.986C88.5664 11.7054 89.786 12.2089 91.0674 12.4692C98.0019 13.8782 102.523 20.5909 101.222 27.5464L98.0843 44.3209C98.0698 44.3986 97.9594 44.4008 97.9404 44.3241C96.4847 38.4529 90.9455 34.5006 84.9233 35.069C82.1797 35.3279 79.4563 34.4021 77.439 32.5246L66.7788 22.6035L74.1924 2.23486Z" fill="#E57A77"/>
<circle cx="74.936" cy="1.94577" r="1.2" transform="rotate(20 74.936 1.94577)" fill="#D8D8D8"/>
<path d="M54.8403 53.6175C54.8403 53.6175 55.7403 53.1675 55.7403 53.3175C55.7403 53.4675 55.7403 55.1175 55.7403 55.1175L55.1403 55.4175L54.8403 53.6175Z" fill="#FFE9E9"/>
<path d="M71.8859 83.6624C71.8859 83.6624 71.5833 82.5594 70.7871 82.4878C69.9908 82.4162 67.7479 84.789 67.279 85.7687C66.8102 86.7483 68.0909 88.1216 69.553 86.8018C71.0151 85.4821 71.8859 83.6624 71.8859 83.6624Z" fill="#677285"/>
<path d="M72.8227 86.8818L71.9083 84.3303C71.54 83.3029 70.1401 83.1722 69.588 84.1136C69.4777 84.3016 69.4167 84.5125 69.4199 84.7303C69.4354 85.7623 69.6038 88.8835 71.0664 89.3045C72.8227 89.8099 72.8227 86.8818 72.8227 86.8818Z" fill="url(#paint9_linear_955_15181)"/>
<path d="M84.1141 83.6624C84.1141 83.6624 84.4167 82.5594 85.2129 82.4878C86.0092 82.4162 88.2521 84.789 88.721 85.7687C89.1898 86.7483 87.9091 88.1216 86.447 86.8018C84.9849 85.4821 84.1141 83.6624 84.1141 83.6624Z" fill="#677285"/>
<path d="M83.1773 86.8818L84.0917 84.3303C84.46 83.3029 85.8599 83.1722 86.412 84.1136C86.5223 84.3016 86.5833 84.5125 86.5801 84.7303C86.5646 85.7623 86.3962 88.8835 84.9336 89.3045C83.1773 89.8099 83.1773 86.8818 83.1773 86.8818Z" fill="url(#paint10_linear_955_15181)"/>
<path d="M73.0802 79.2195C73.0802 79.2195 72.5784 80.2049 72.5784 80.8977C72.0766 82.0214 71.25 83.5337 69.8185 86.6878C68.8805 88.7546 70.5721 89.3027 71.85 89.435C72.6479 89.5176 73.4126 89.1866 74.033 88.6781L77.8613 85.5401L82.4177 89.3024C83.2442 89.9848 84.4401 89.9801 85.2612 89.2911C86.1056 88.5826 86.3262 87.3489 85.8395 86.3598C85.2927 85.2485 84.4808 83.5071 83.3671 80.8977C83.3671 80.2121 82.9294 79.5547 82.9294 79.5547L73.0802 79.2195Z" fill="url(#paint11_linear_955_15181)"/>
<path d="M83.9995 71.4199C84.8179 72.6154 84.5995 75.6044 84.5995 75.6044H82.1995L83.1582 82.0494C83.2048 82.3628 83.03 82.6658 82.7325 82.7747C81.6595 83.1671 79.1186 84.0393 77.4835 84.1361C75.844 84.2331 73.0602 83.3835 71.8869 82.9949C71.5697 82.8898 71.3899 82.5682 71.4784 82.2459C71.7343 81.3136 72.4104 79.1856 74.0275 75.6044C74.5283 76.1901 71.6995 75.6044 71.6995 75.6044C71.6995 75.6044 71.876 72.9426 72.5995 71.4199C73.323 69.8971 74.9995 68.88 74.9995 68.88L79.2389 68.2361C79.2389 68.2361 80.9995 68.58 81.8995 69.0594C82.7995 69.5389 83.1811 70.2244 83.9995 71.4199Z" fill="url(#paint12_linear_955_15181)"/>
<path d="M84.3726 75.593L84.2772 78.4361L83.9551 79.8588L81.7396 88.9981L82.093 89.7605L82.3214 90.7505L82.093 91.3805L81.493 91.1567L80.293 90.1805L80.0771 89.5328C80.0235 89.3721 80.0404 89.1963 80.1234 89.0488L80.7118 88.0034L82.3214 79.471L82.1594 75.7005L84.3726 75.593Z" fill="#FDE7E6"/>
<path d="M71.7599 75.7002L72.019 78.4358L72.3411 79.8585L74.5566 88.9978L74.2032 89.7602L73.9749 90.7502L74.2032 91.3802L74.8032 91.1563L76.0032 90.1802L76.2191 89.5325C76.2727 89.3718 76.2559 89.196 76.1728 89.0485L75.5844 88.003L73.9749 79.4707L74.0999 75.7002L71.7599 75.7002Z" fill="#FDE7E6"/>
<path fill-rule="evenodd" clip-rule="evenodd" d="M78.9828 65.9094H76.6197V69.0765H78.9828V65.9094ZM77.5649 70.8892C77.5649 70.4395 76.6196 69.0766 76.6196 69.0766H78.9827C78.9827 69.0766 77.5649 71.3388 77.5649 70.8892Z" fill="#FECECD"/>
<ellipse cx="77.6645" cy="65.3854" rx="2.09513" ry="3.12" fill="#FFE9E9"/>
<path fill-rule="evenodd" clip-rule="evenodd" d="M75.3644 65.9054C75.532 65.3107 75.532 63.9992 75.8673 63.9564C76.2025 63.9137 76.8729 64.162 77.5434 63.6802C77.8786 63.4157 78.0462 63.3826 78.0462 63.2498C79.7223 63.5663 78.7199 64.5213 79.5547 65.5734C79.6417 65.6831 79.8899 65.5734 79.8899 65.5734C79.8899 65.5734 79.8899 62.9829 79.7223 62.7518C79.5547 62.5207 78.8843 61.59 78.549 62.2539C78.549 61.922 77.8786 61.5795 77.2082 61.8337C76.5377 62.0879 75.532 62.5859 75.3644 63.2498C75.1968 63.9137 75.0292 65.2415 75.3644 65.9054Z" fill="#513450"/>
<defs>
<radialGradient id="paint0_radial_955_15181" cx="0" cy="0" r="1" gradientUnits="userSpaceOnUse" gradientTransform="translate(67.6577 97.4038) rotate(-90) scale(26.697 278.823)">
<stop stop-color="#EBEDF0" stop-opacity="0.24"/>
<stop offset="0.536775" stop-color="#EBEDF0" stop-opacity="0.845525"/>
<stop offset="1" stop-color="#E0E4E7" stop-opacity="0.01"/>
</radialGradient>
<linearGradient id="paint1_linear_955_15181" x1="58.9997" y1="101.754" x2="60.2489" y2="104.426" gradientUnits="userSpaceOnUse">
<stop stop-color="#E1E7EA"/>
<stop offset="1" stop-color="#D0D6DC"/>
</linearGradient>
<linearGradient id="paint2_linear_955_15181" x1="98.7194" y1="98.549" x2="101.005" y2="103.317" gradientUnits="userSpaceOnUse">
<stop stop-color="#E1E7EA"/>
<stop offset="1" stop-color="#D0D6DC"/>
</linearGradient>
<linearGradient id="paint3_linear_955_15181" x1="26.4006" y1="89.4634" x2="27.694" y2="94.6162" gradientUnits="userSpaceOnUse">
<stop stop-color="#FBFBFB"/>
<stop offset="1" stop-color="#D9DFE3"/>
</linearGradient>
<linearGradient id="paint4_linear_955_15181" x1="115.023" y1="16.3706" x2="117.21" y2="23.9314" gradientUnits="userSpaceOnUse">
<stop stop-color="#ECECEC"/>
<stop offset="0.717538" stop-color="#E1E7EA"/>
<stop offset="1" stop-color="#BCC3CA"/>
</linearGradient>
<linearGradient id="paint5_linear_955_15181" x1="118.081" y1="19.4767" x2="127.354" y2="22.8519" gradientUnits="userSpaceOnUse">
<stop stop-color="#BAC6D2"/>
<stop offset="1" stop-color="#7F8F9F"/>
</linearGradient>
<linearGradient id="paint6_linear_955_15181" x1="119.39" y1="19.0055" x2="120.82" y2="21.8947" gradientUnits="userSpaceOnUse">
<stop stop-color="#E1E7EA"/>
<stop offset="1" stop-color="#D0D6DC"/>
</linearGradient>
<linearGradient id="paint7_linear_955_15181" x1="31.6046" y1="46.6938" x2="26.512" y2="38.0934" gradientUnits="userSpaceOnUse">
<stop stop-color="#DAE2E6"/>
<stop offset="0.58" stop-color="#E3EBEF"/>
<stop offset="1" stop-color="#EDF6F9"/>
</linearGradient>
<linearGradient id="paint8_linear_955_15181" x1="68.6155" y1="89.1778" x2="77.2091" y2="102.547" gradientUnits="userSpaceOnUse">
<stop stop-color="#C4CDD1"/>
<stop offset="1" stop-color="#C6CFD3" stop-opacity="0.01"/>
</linearGradient>
<linearGradient id="paint9_linear_955_15181" x1="72.8227" y1="89.3789" x2="72.8227" y2="82.7183" gradientUnits="userSpaceOnUse">
<stop stop-color="#7A87AF"/>
<stop offset="1" stop-color="#444F77"/>
</linearGradient>
<linearGradient id="paint10_linear_955_15181" x1="83.1773" y1="89.3789" x2="83.1773" y2="82.7183" gradientUnits="userSpaceOnUse">
<stop stop-color="#7A87AF"/>
<stop offset="1" stop-color="#444F77"/>
</linearGradient>
<linearGradient id="paint11_linear_955_15181" x1="86.1216" y1="89.7953" x2="86.1216" y2="79.2195" gradientUnits="userSpaceOnUse">
<stop stop-color="#7A87AF"/>
<stop offset="1" stop-color="#444F77"/>
</linearGradient>
<linearGradient id="paint12_linear_955_15181" x1="91.3178" y1="75.5004" x2="77.6837" y2="90.1144" gradientUnits="userSpaceOnUse">
<stop stop-color="#E5E9F0"/>
<stop offset="1" stop-color="#D2DAE8"/>
</linearGradient>
</defs>
</svg>
