<svg width="41" height="41" viewBox="0 0 41 41" fill="none" xmlns="http://www.w3.org/2000/svg">
<rect width="40.5479" height="40.5479" rx="6.75799" fill="white"/>
<mask id="mask0_1385_17355" style="mask-type:alpha" maskUnits="userSpaceOnUse" x="4" y="4" width="33" height="32">
<path d="M12.42 19.4812H7.54883V20.4787H12.42V19.4812Z" fill="white"/>
<path d="M6.11054 21.8924C5.72566 21.8924 5.34941 21.7804 5.02925 21.5704C4.70908 21.3605 4.45934 21.062 4.31153 20.7128C4.16372 20.3634 4.12446 19.979 4.19871 19.6078C4.27296 19.2366 4.45738 18.8953 4.72872 18.627C5.00006 18.3587 5.34616 18.1754 5.72335 18.1002C6.10055 18.025 6.49195 18.0614 6.84818 18.2046C7.20441 18.3478 7.50951 18.5914 7.725 18.9049C7.94049 19.2184 8.05671 19.5875 8.059 19.9658C8.06053 20.2183 8.01126 20.4686 7.91402 20.7022C7.81679 20.9359 7.67351 21.1484 7.49243 21.3274C7.31134 21.5065 7.09603 21.6486 6.85887 21.7456C6.62172 21.8425 6.3674 21.8924 6.11054 21.8924ZM6.11054 19.0424C5.92887 19.048 5.75288 19.106 5.6044 19.209C5.45594 19.312 5.34152 19.4557 5.27538 19.6221C5.20925 19.7885 5.19428 19.9704 5.23236 20.145C5.27044 20.3198 5.35988 20.4796 5.48958 20.6048C5.61928 20.7299 5.78351 20.8149 5.96191 20.8491C6.1403 20.8833 6.32499 20.8653 6.49305 20.7972C6.6611 20.7292 6.80512 20.6141 6.90722 20.4663C7.00932 20.3185 7.06501 20.1445 7.06737 19.9658C7.06589 19.8446 7.03983 19.7248 6.99071 19.6136C6.94159 19.5024 6.87041 19.4019 6.78131 19.3181C6.69222 19.2342 6.58701 19.1686 6.47183 19.1252C6.35666 19.0818 6.23383 19.0614 6.11054 19.0652V19.0424Z" fill="white"/>
<path d="M9.49692 28.8634C9.11295 28.8623 8.73793 28.7494 8.41922 28.5389C8.10051 28.3284 7.85243 28.0298 7.70628 27.6808C7.56013 27.3317 7.52248 26.948 7.5981 26.5779C7.67371 26.2079 7.85918 25.8682 8.1311 25.6017C8.40302 25.3352 8.74918 25.1539 9.12586 25.0807C9.50254 25.0075 9.89285 25.0456 10.2475 25.1904C10.6021 25.335 10.9052 25.5798 11.1184 25.8937C11.3316 26.2076 11.4454 26.5765 11.4454 26.954C11.4439 27.4609 11.2379 27.9466 10.8726 28.3045C10.5074 28.6624 10.0127 28.8634 9.49692 28.8634ZM9.49692 26.0134C9.31366 26.0146 9.13485 26.069 8.98303 26.1699C8.83122 26.2708 8.7132 26.4136 8.64386 26.5804C8.57452 26.7471 8.55697 26.9303 8.59342 27.1068C8.62988 27.2834 8.7187 27.4454 8.84869 27.5723C8.97868 27.6993 9.14401 27.7856 9.32383 27.8203C9.50366 27.855 9.68992 27.8366 9.85912 27.7674C10.0283 27.6983 10.1729 27.5814 10.2746 27.4315C10.3763 27.2817 10.4306 27.1056 10.4306 26.9254C10.423 26.6876 10.3211 26.462 10.1467 26.2969C9.97224 26.1318 9.73906 26.0403 9.49692 26.042V26.0134Z" fill="white"/>
<path d="M10.0075 25.5404H8.99271V23.1293C8.99194 23.0637 9.00442 22.9986 9.02944 22.9378C9.05444 22.8769 9.09148 22.8216 9.13841 22.775C9.18534 22.7283 9.24121 22.6912 9.3028 22.666C9.36439 22.6407 9.43047 22.6277 9.49722 22.6277H12.3967V23.6252H10.0075V25.5404Z" fill="white"/>
<path d="M9.49728 14.9156C9.11167 14.9156 8.73472 14.8031 8.41417 14.5925C8.09363 14.3817 7.8439 14.0823 7.69659 13.732C7.54929 13.3817 7.51104 12.9963 7.58669 12.6247C7.66235 12.253 7.8485 11.9117 8.12157 11.6441C8.39465 11.3765 8.74238 11.1946 9.12072 11.1213C9.49907 11.0481 9.89102 11.0868 10.247 11.2326C10.6029 11.3785 10.9068 11.6248 11.1202 11.9405C11.3336 12.2563 11.4469 12.6271 11.4457 13.0061C11.4442 13.5131 11.2383 13.9987 10.873 14.3567C10.5078 14.7146 10.013 14.9156 9.49728 14.9156ZM9.49728 12.0656C9.31402 12.0667 9.13521 12.1212 8.98339 12.2221C8.83158 12.323 8.71356 12.4658 8.64422 12.6325C8.57488 12.7993 8.55733 12.9825 8.59379 13.159C8.63024 13.3355 8.71906 13.4975 8.84905 13.6245C8.97904 13.7515 9.14437 13.8377 9.32419 13.8725C9.50402 13.9072 9.69028 13.8888 9.85948 13.8197C10.0287 13.7505 10.1733 13.6335 10.2749 13.4837C10.3766 13.3339 10.4309 13.1577 10.4309 12.9776C10.4234 12.7397 10.3215 12.5141 10.147 12.3491C9.9726 12.184 9.73942 12.0925 9.49728 12.0941V12.0656Z" fill="white"/>
<path d="M12.4196 17.3323H9.52013C9.3858 17.3308 9.25749 17.2773 9.16303 17.1834C9.06858 17.0894 9.01561 16.9627 9.01563 16.8307V14.4138H10.0304V16.3291H12.4428L12.4196 17.3323Z" fill="white"/>
<path d="M20.927 27.8889H19.9121V32.6769H20.927V27.8889Z" fill="white"/>
<path d="M20.405 36.0001C20.0194 36.0001 19.6424 35.8877 19.3219 35.6769C19.0014 35.4663 18.7516 35.1668 18.6043 34.8165C18.457 34.4662 18.4187 34.0808 18.4944 33.7092C18.5701 33.3375 18.7562 32.9962 19.0293 32.7286C19.3024 32.461 19.6501 32.279 20.0285 32.2058C20.4068 32.1325 20.7988 32.1713 21.1547 32.3171C21.5106 32.463 21.8145 32.7093 22.0279 33.025C22.2413 33.3407 22.3546 33.7116 22.3535 34.0906C22.3519 34.5976 22.1459 35.0832 21.7807 35.4412C21.4155 35.7991 20.9208 36.0001 20.405 36.0001ZM20.405 33.1501C20.2215 33.1501 20.0421 33.2036 19.8895 33.3038C19.737 33.404 19.618 33.5464 19.5478 33.7131C19.4775 33.8797 19.4592 34.0631 19.495 34.2401C19.5308 34.4169 19.6192 34.5794 19.7489 34.707C19.8787 34.8345 20.044 34.9214 20.224 34.9566C20.404 34.9918 20.5905 34.9737 20.7601 34.9047C20.9296 34.8356 21.0745 34.7188 21.1765 34.5688C21.2784 34.4188 21.3329 34.2424 21.3329 34.0621C21.3253 33.8252 21.2242 33.6004 21.0511 33.4356C20.8778 33.2706 20.6462 33.1784 20.405 33.1786V33.1501Z" fill="white"/>
<path d="M27.5148 32.6713C27.1292 32.6724 26.7519 32.561 26.4307 32.3513C26.1096 32.1415 25.8589 31.8428 25.7106 31.4929C25.5622 31.1431 25.5228 30.7578 25.5973 30.3859C25.6718 30.014 25.8569 29.6722 26.1292 29.4038C26.4015 29.1354 26.7487 28.9524 27.1268 28.8781C27.5049 28.8037 27.8969 28.8413 28.2534 28.9861C28.6097 29.1309 28.9144 29.3763 29.1287 29.6914C29.3431 30.0065 29.4575 30.377 29.4575 30.756C29.4575 31.263 29.253 31.7493 28.8889 32.1083C28.5247 32.4673 28.0306 32.6697 27.5148 32.6713ZM27.5148 29.8212C27.3297 29.8201 27.1484 29.8731 26.9939 29.9735C26.8396 30.0739 26.719 30.2172 26.6476 30.3851C26.5762 30.553 26.5572 30.738 26.5931 30.9165C26.6289 31.0951 26.718 31.2591 26.8489 31.3878C26.9798 31.5165 27.1467 31.6041 27.3283 31.6393C27.51 31.6745 27.6981 31.6559 27.869 31.5857C28.0398 31.5155 28.1856 31.397 28.2877 31.2452C28.3899 31.0934 28.4438 30.9152 28.4426 30.7332C28.4366 30.4953 28.3362 30.2692 28.1629 30.1031C27.9895 29.9369 27.7569 29.8439 27.5148 29.844V29.8212Z" fill="white"/>
<path d="M26.0766 31.2577H23.6236C23.5564 31.2584 23.4897 31.2459 23.4275 31.221C23.3651 31.1961 23.3086 31.1591 23.261 31.1124C23.2136 31.0657 23.176 31.0101 23.1506 30.9489C23.1252 30.8877 23.1126 30.8221 23.1133 30.756V27.906H24.1282V30.2772H26.0766V31.2577Z" fill="white"/>
<path d="M13.3244 32.6713C12.9388 32.6724 12.5615 32.561 12.2403 32.3513C11.9191 32.1415 11.6685 31.8428 11.5201 31.4929C11.3718 31.1431 11.3323 30.7578 11.4068 30.3859C11.4814 30.014 11.6665 29.6722 11.9388 29.4038C12.211 29.1354 12.5582 28.9524 12.9363 28.8781C13.3145 28.8037 13.7065 28.8413 14.0629 28.9861C14.4193 29.1309 14.7239 29.3763 14.9382 29.6914C15.1526 30.0065 15.2671 30.377 15.2671 30.756C15.2656 31.2625 15.0605 31.7479 14.6967 32.1066C14.3329 32.4653 13.8397 32.6683 13.3244 32.6713ZM13.3244 29.8212C13.1393 29.8201 12.9579 29.8731 12.8035 29.9735C12.6491 30.0739 12.5285 30.2172 12.4572 30.3851C12.3858 30.553 12.3668 30.738 12.4026 30.9165C12.4385 31.0951 12.5275 31.2591 12.6584 31.3878C12.7894 31.5165 12.9562 31.6041 13.1379 31.6393C13.3196 31.6745 13.5078 31.6559 13.6785 31.5857C13.8494 31.5155 13.9952 31.397 14.0973 31.2452C14.1994 31.0934 14.2534 30.9152 14.2522 30.7332C14.2462 30.4953 14.1458 30.2692 13.9724 30.1031C13.7991 29.9369 13.5665 29.8439 13.3244 29.844V29.8212Z" fill="white"/>
<path d="M17.2156 31.2576H14.7568V30.2601H16.7053V27.8889H17.7201V30.7389C17.7233 30.8059 17.7125 30.8728 17.6886 30.9357C17.6647 30.9985 17.628 31.0559 17.5808 31.1044C17.5336 31.1529 17.477 31.1914 17.4142 31.2178C17.3514 31.2441 17.2839 31.2577 17.2156 31.2576Z" fill="white"/>
<path d="M33.337 19.5269H28.4658V20.5244H33.337V19.5269Z" fill="white"/>
<path d="M34.7751 21.9381C34.3892 21.9392 34.0117 21.8277 33.6904 21.6177C33.3691 21.4077 33.1184 21.1086 32.9703 20.7584C32.8221 20.4082 32.7829 20.0227 32.858 19.6506C32.933 19.2786 33.1187 18.9368 33.3915 18.6686C33.6643 18.4004 34.0121 18.2179 34.3906 18.1442C34.7691 18.0705 35.1613 18.1089 35.5176 18.2545C35.8739 18.4002 36.1781 18.6465 36.3918 18.9624C36.6054 19.2782 36.7189 19.6493 36.7178 20.0285C36.7162 20.5345 36.511 21.0193 36.147 21.3771C35.7831 21.7349 35.2898 21.9366 34.7751 21.9381ZM34.7751 19.1165C34.5915 19.1165 34.4121 19.1701 34.2596 19.2703C34.107 19.3705 33.9881 19.5129 33.9178 19.6795C33.8476 19.8462 33.8293 20.0296 33.8651 20.2065C33.9009 20.3834 33.9892 20.5459 34.119 20.6735C34.2488 20.801 34.414 20.8879 34.594 20.9231C34.7741 20.9583 34.9606 20.9402 35.1301 20.8711C35.2997 20.8021 35.4446 20.6852 35.5465 20.5353C35.6485 20.3853 35.7029 20.2089 35.7029 20.0285C35.7029 19.7867 35.6052 19.5547 35.4311 19.3837C35.2572 19.2127 35.0211 19.1165 34.7751 19.1165Z" fill="white"/>
<path d="M31.3827 14.9611C30.9987 14.96 30.6236 14.847 30.3049 14.6366C29.9862 14.426 29.7382 14.1274 29.592 13.7784C29.4459 13.4294 29.4082 13.0456 29.4838 12.6756C29.5595 12.3056 29.7449 11.9658 30.0168 11.6994C30.2887 11.4329 30.6349 11.2516 31.0116 11.1784C31.3883 11.1052 31.7786 11.1433 32.1332 11.288C32.4878 11.4327 32.7909 11.6774 33.0041 11.9914C33.2173 12.3052 33.3311 12.6742 33.3311 13.0516C33.3296 13.5586 33.1236 14.0442 32.7584 14.4022C32.3932 14.7602 31.8984 14.9611 31.3827 14.9611ZM31.3827 12.1396C31.1994 12.1408 31.0206 12.1952 30.8687 12.2961C30.717 12.397 30.5989 12.5398 30.5296 12.7066C30.4602 12.8733 30.4427 13.0565 30.4792 13.233C30.5156 13.4096 30.6044 13.5715 30.7344 13.6985C30.8644 13.8255 31.0298 13.9118 31.2096 13.9465C31.3894 13.9812 31.5757 13.9628 31.7448 13.8936C31.9141 13.8244 32.0587 13.7076 32.1603 13.5577C32.262 13.4078 32.3163 13.2318 32.3163 13.0516C32.3163 12.9314 32.2921 12.8123 32.2451 12.7013C32.1981 12.5902 32.1293 12.4895 32.0425 12.4047C31.9557 12.32 31.8527 12.2529 31.7395 12.2074C31.6263 12.1619 31.505 12.1388 31.3827 12.1396Z" fill="white"/>
<path d="M31.3824 17.3781H28.4829V16.3805H30.8953V14.4653H31.9101V16.8765C31.9109 16.944 31.8978 17.011 31.8713 17.0734C31.8449 17.1358 31.8058 17.1922 31.7564 17.2391C31.7069 17.2861 31.6483 17.3227 31.584 17.3465C31.5197 17.3705 31.4511 17.3811 31.3824 17.3781Z" fill="white"/>
<path d="M31.3827 28.9091C30.9987 28.908 30.6236 28.795 30.3049 28.5846C29.9862 28.374 29.7382 28.0754 29.592 27.7264C29.4459 27.3774 29.4082 26.9936 29.4838 26.6236C29.5595 26.2536 29.7449 25.9138 30.0168 25.6474C30.2887 25.3809 30.6349 25.1996 31.0116 25.1264C31.3883 25.0532 31.7786 25.0913 32.1332 25.236C32.4878 25.3807 32.7909 25.6254 33.0041 25.9394C33.2173 26.2532 33.3311 26.6222 33.3311 26.9996C33.3296 27.5066 33.1236 27.9922 32.7584 28.3502C32.3932 28.7081 31.8984 28.9091 31.3827 28.9091ZM31.3827 26.0876C31.1994 26.0887 31.0206 26.1432 30.8687 26.244C30.717 26.345 30.5989 26.4878 30.5296 26.6545C30.4602 26.8213 30.4427 27.0044 30.4792 27.181C30.5156 27.3576 30.6044 27.5195 30.7344 27.6465C30.8644 27.7734 31.0298 27.8598 31.2096 27.8945C31.3894 27.9292 31.5757 27.9108 31.7448 27.8416C31.9141 27.7724 32.0587 27.6556 32.1603 27.5057C32.262 27.3558 32.3163 27.1798 32.3163 26.9996C32.3163 26.8794 32.2921 26.7603 32.2451 26.6493C32.1981 26.5382 32.1293 26.4374 32.0425 26.3527C31.9557 26.268 31.8527 26.2009 31.7395 26.1554C31.6263 26.1099 31.505 26.0868 31.3827 26.0876Z" fill="white"/>
<path d="M31.893 25.586H30.8783V23.6765H28.4658V22.6733H31.3654C31.4324 22.6733 31.4987 22.6863 31.5606 22.7115C31.6226 22.7367 31.6788 22.7737 31.7262 22.8202C31.7736 22.8668 31.8112 22.9221 31.8368 22.9829C31.8624 23.0438 31.8757 23.1091 31.8757 23.1749L31.893 25.586Z" fill="white"/>
<path d="M20.9733 7.32886H19.9585V12.1169H20.9733V7.32886Z" fill="white"/>
<path d="M20.4689 7.83042C20.0833 7.83155 19.706 7.72018 19.3848 7.51042C19.0637 7.30066 18.813 7.00194 18.6647 6.65208C18.5163 6.30223 18.4769 5.91696 18.5514 5.54507C18.6259 5.17318 18.811 4.83139 19.0833 4.56297C19.3556 4.29456 19.7027 4.11158 20.0808 4.03722C20.4589 3.96286 20.851 4.00045 21.2074 4.14524C21.5638 4.29003 21.8685 4.5355 22.0828 4.85058C22.2972 5.16566 22.4116 5.53617 22.4116 5.91521C22.41 6.42171 22.2051 6.90712 21.8413 7.2658C21.4775 7.62449 20.9842 7.82741 20.4689 7.83042ZM20.4689 4.9804C20.2854 4.9804 20.106 5.03389 19.9535 5.1341C19.8008 5.23431 19.682 5.37675 19.6117 5.54339C19.5415 5.71004 19.5231 5.89341 19.5589 6.07033C19.5947 6.24724 19.6831 6.40975 19.8129 6.53729C19.9426 6.66483 20.108 6.75169 20.2879 6.78689C20.4679 6.82207 20.6544 6.80401 20.824 6.73499C20.9935 6.66596 21.1384 6.54907 21.2404 6.39909C21.3424 6.24911 21.3967 6.07278 21.3967 5.89241C21.3907 5.6545 21.2903 5.42834 21.1169 5.26221C20.9435 5.09607 20.711 5.00313 20.4689 5.0032V4.9804Z" fill="white"/>
<path d="M13.3707 11.1593C12.9851 11.1604 12.6078 11.049 12.2867 10.8393C11.9655 10.6295 11.7149 10.3308 11.5665 9.98094C11.4181 9.63108 11.3787 9.24582 11.4532 8.87393C11.5277 8.50204 11.7128 8.16025 11.9851 7.89183C12.2574 7.62342 12.6046 7.44044 12.9827 7.36608C13.3608 7.29172 13.7528 7.32931 14.1093 7.4741C14.4656 7.61889 14.7703 7.86436 14.9846 8.17944C15.199 8.49452 15.3134 8.86502 15.3134 9.24406C15.3134 9.75102 15.1089 10.2373 14.7448 10.5963C14.3806 10.9553 13.8865 11.1578 13.3707 11.1593ZM13.3707 8.30926C13.1856 8.30813 13.0043 8.36114 12.8499 8.46154C12.6955 8.56194 12.5749 8.70521 12.5035 8.87313C12.4321 9.04105 12.4131 9.22604 12.449 9.40458C12.4848 9.58314 12.5739 9.74718 12.7048 9.87586C12.8357 10.0045 13.0026 10.0921 13.1843 10.1273C13.3659 10.1625 13.5541 10.1439 13.7249 10.0737C13.8958 10.0035 14.0415 9.88503 14.1436 9.73324C14.2458 9.58146 14.2997 9.40325 14.2986 9.22126C14.2925 8.98336 14.1921 8.7572 14.0188 8.59106C13.8454 8.42493 13.6129 8.33198 13.3707 8.33206V8.30926Z" fill="white"/>
<path d="M17.7723 12.1168H16.7575V9.74559H14.8091V8.74808H17.262C17.3287 8.74733 17.395 8.7596 17.4569 8.78418C17.5187 8.80877 17.5751 8.84517 17.6225 8.8913C17.67 8.93743 17.7077 8.99235 17.7334 9.05289C17.7591 9.11343 17.7723 9.17838 17.7723 9.24399V12.1168Z" fill="white"/>
<path d="M27.5612 11.1593C27.1756 11.1604 26.7983 11.049 26.4771 10.8393C26.156 10.6295 25.9053 10.3308 25.7569 9.98094C25.6085 9.63108 25.5691 9.24582 25.6437 8.87393C25.7182 8.50204 25.9033 8.16025 26.1756 7.89183C26.4479 7.62342 26.7951 7.44044 27.1732 7.36608C27.5513 7.29172 27.9433 7.32931 28.2997 7.4741C28.6561 7.61889 28.9608 7.86436 29.1751 8.17944C29.3895 8.49452 29.5039 8.86502 29.5039 9.24406C29.5039 9.75102 29.2994 10.2373 28.9352 10.5963C28.5711 10.9553 28.077 11.1578 27.5612 11.1593ZM27.5612 8.30926C27.376 8.30813 27.1947 8.36114 27.0403 8.46154C26.8859 8.56194 26.7654 8.70521 26.694 8.87313C26.6226 9.04105 26.6036 9.22604 26.6395 9.40458C26.6753 9.58314 26.7643 9.74718 26.8952 9.87586C27.0262 10.0045 27.1931 10.0921 27.3747 10.1273C27.5564 10.1625 27.7445 10.1439 27.9154 10.0737C28.0862 10.0035 28.232 9.88503 28.3341 9.73324C28.4363 9.58146 28.4902 9.40325 28.489 9.22126C28.483 8.98336 28.3826 8.7572 28.2093 8.59106C28.0359 8.42493 27.8033 8.33198 27.5612 8.33206V8.30926Z" fill="white"/>
<path d="M24.1803 12.1169H23.1597V9.2669C23.1612 9.13486 23.2156 9.00874 23.3112 8.9159C23.4068 8.82306 23.5357 8.77099 23.67 8.771H26.123V9.7685H24.1803V12.1169Z" fill="white"/>
<path d="M19.4307 22.0463L17.7549 20.399L18.474 19.6922L19.4307 20.6327L22.4115 17.7029L23.1305 18.4097L19.4307 22.0463Z" fill="white"/>
<path d="M20.4399 27.1763C20.3524 27.1786 20.2661 27.1569 20.1906 27.1136C13.5739 23.3858 14.2755 15.1834 14.2814 15.1036C14.2911 14.9903 14.3403 14.8836 14.4205 14.8017C14.5007 14.7197 14.6072 14.6673 14.7221 14.6533C14.7569 14.6533 18.1609 14.2144 20.1558 12.8692C20.2403 12.8098 20.3417 12.7778 20.4457 12.7778C20.5497 12.7778 20.6511 12.8098 20.7357 12.8692C22.7305 14.2201 26.1345 14.6476 26.1693 14.6533C26.2838 14.6683 26.3897 14.721 26.4697 14.8028C26.5498 14.8846 26.5992 14.9906 26.61 15.1036C26.61 15.1834 27.3175 23.3858 20.7009 27.1136C20.6218 27.1587 20.5312 27.1805 20.4399 27.1763ZM15.273 15.5824C15.2324 17.15 15.4354 23.0894 20.4399 26.099C25.4561 23.0837 25.659 17.15 25.6126 15.5824C23.7991 15.3174 22.0478 14.7384 20.4399 13.8724C18.8333 14.7364 17.0841 15.3153 15.273 15.5824Z" fill="white"/>
</mask>
<g mask="url(#mask0_1385_17355)">
<path d="M12.42 19.4812H7.54883V20.4787H12.42V19.4812Z" fill="#03C9FF"/>
<path d="M6.11054 21.8924C5.72566 21.8924 5.34941 21.7804 5.02925 21.5704C4.70908 21.3605 4.45934 21.062 4.31153 20.7128C4.16372 20.3634 4.12446 19.979 4.19871 19.6078C4.27296 19.2366 4.45738 18.8953 4.72872 18.627C5.00006 18.3587 5.34616 18.1754 5.72335 18.1002C6.10055 18.025 6.49195 18.0614 6.84818 18.2046C7.20441 18.3478 7.50951 18.5914 7.725 18.9049C7.94049 19.2184 8.05671 19.5875 8.059 19.9658C8.06053 20.2183 8.01126 20.4686 7.91402 20.7022C7.81679 20.9359 7.67351 21.1484 7.49243 21.3274C7.31134 21.5065 7.09603 21.6486 6.85887 21.7456C6.62172 21.8425 6.3674 21.8924 6.11054 21.8924ZM6.11054 19.0424C5.92887 19.048 5.75288 19.106 5.6044 19.209C5.45594 19.312 5.34152 19.4557 5.27538 19.6221C5.20925 19.7885 5.19428 19.9704 5.23236 20.145C5.27044 20.3198 5.35988 20.4796 5.48958 20.6048C5.61928 20.7299 5.78351 20.8149 5.96191 20.8491C6.1403 20.8833 6.32499 20.8653 6.49305 20.7972C6.6611 20.7292 6.80512 20.6141 6.90722 20.4663C7.00932 20.3185 7.06501 20.1445 7.06737 19.9658C7.06589 19.8446 7.03983 19.7248 6.99071 19.6136C6.94159 19.5024 6.87041 19.4019 6.78131 19.3181C6.69222 19.2342 6.58701 19.1686 6.47183 19.1252C6.35666 19.0818 6.23383 19.0614 6.11054 19.0652V19.0424Z" fill="#03C9FF"/>
<path d="M9.49692 28.8634C9.11295 28.8623 8.73793 28.7494 8.41922 28.5389C8.10051 28.3284 7.85243 28.0298 7.70628 27.6808C7.56013 27.3317 7.52248 26.948 7.5981 26.5779C7.67371 26.2079 7.85918 25.8682 8.1311 25.6017C8.40302 25.3352 8.74918 25.1539 9.12586 25.0807C9.50254 25.0075 9.89285 25.0456 10.2475 25.1904C10.6021 25.335 10.9052 25.5798 11.1184 25.8937C11.3316 26.2076 11.4454 26.5765 11.4454 26.954C11.4439 27.4609 11.2379 27.9466 10.8726 28.3045C10.5074 28.6624 10.0127 28.8634 9.49692 28.8634ZM9.49692 26.0134C9.31366 26.0146 9.13485 26.069 8.98303 26.1699C8.83122 26.2708 8.7132 26.4136 8.64386 26.5804C8.57452 26.7471 8.55697 26.9303 8.59342 27.1068C8.62988 27.2834 8.7187 27.4454 8.84869 27.5723C8.97868 27.6993 9.14401 27.7856 9.32383 27.8203C9.50366 27.855 9.68992 27.8366 9.85912 27.7674C10.0283 27.6983 10.1729 27.5814 10.2746 27.4315C10.3763 27.2817 10.4306 27.1056 10.4306 26.9254C10.423 26.6876 10.3211 26.462 10.1467 26.2969C9.97224 26.1318 9.73906 26.0403 9.49692 26.042V26.0134Z" fill="#03C9FF"/>
<path d="M10.0075 25.5404H8.99271V23.1293C8.99194 23.0637 9.00442 22.9986 9.02944 22.9378C9.05444 22.8769 9.09148 22.8216 9.13841 22.775C9.18534 22.7283 9.24121 22.6912 9.3028 22.666C9.36439 22.6407 9.43047 22.6277 9.49722 22.6277H12.3967V23.6252H10.0075V25.5404Z" fill="#03C9FF"/>
<path d="M9.49728 14.9156C9.11167 14.9156 8.73472 14.8031 8.41417 14.5925C8.09363 14.3817 7.8439 14.0823 7.69659 13.732C7.54929 13.3817 7.51104 12.9963 7.58669 12.6247C7.66235 12.253 7.8485 11.9117 8.12157 11.6441C8.39465 11.3765 8.74238 11.1946 9.12072 11.1213C9.49907 11.0481 9.89102 11.0868 10.247 11.2326C10.6029 11.3785 10.9068 11.6248 11.1202 11.9405C11.3336 12.2563 11.4469 12.6271 11.4457 13.0061C11.4442 13.5131 11.2383 13.9987 10.873 14.3567C10.5078 14.7146 10.013 14.9156 9.49728 14.9156ZM9.49728 12.0656C9.31402 12.0667 9.13521 12.1212 8.98339 12.2221C8.83158 12.323 8.71356 12.4658 8.64422 12.6325C8.57488 12.7993 8.55733 12.9825 8.59379 13.159C8.63024 13.3355 8.71906 13.4975 8.84905 13.6245C8.97904 13.7515 9.14437 13.8377 9.32419 13.8725C9.50402 13.9072 9.69028 13.8888 9.85948 13.8197C10.0287 13.7505 10.1733 13.6335 10.2749 13.4837C10.3766 13.3339 10.4309 13.1577 10.4309 12.9776C10.4234 12.7397 10.3215 12.5141 10.147 12.3491C9.9726 12.184 9.73942 12.0925 9.49728 12.0941V12.0656Z" fill="#03C9FF"/>
<path d="M12.4196 17.3323H9.52013C9.3858 17.3308 9.25749 17.2773 9.16303 17.1834C9.06858 17.0894 9.01561 16.9627 9.01563 16.8307V14.4138H10.0304V16.3291H12.4428L12.4196 17.3323Z" fill="#03C9FF"/>
<path d="M20.927 27.8889H19.9121V32.6769H20.927V27.8889Z" fill="#03C9FF"/>
<path d="M20.405 36.0001C20.0194 36.0001 19.6424 35.8877 19.3219 35.6769C19.0014 35.4663 18.7516 35.1668 18.6043 34.8165C18.457 34.4662 18.4187 34.0808 18.4944 33.7092C18.5701 33.3375 18.7562 32.9962 19.0293 32.7286C19.3024 32.461 19.6501 32.279 20.0285 32.2058C20.4068 32.1325 20.7988 32.1713 21.1547 32.3171C21.5106 32.463 21.8145 32.7093 22.0279 33.025C22.2413 33.3407 22.3546 33.7116 22.3535 34.0906C22.3519 34.5976 22.1459 35.0832 21.7807 35.4412C21.4155 35.7991 20.9208 36.0001 20.405 36.0001ZM20.405 33.1501C20.2215 33.1501 20.0421 33.2036 19.8895 33.3038C19.737 33.404 19.618 33.5464 19.5478 33.7131C19.4775 33.8797 19.4592 34.0631 19.495 34.2401C19.5308 34.4169 19.6192 34.5794 19.7489 34.707C19.8787 34.8345 20.044 34.9214 20.224 34.9566C20.404 34.9918 20.5905 34.9737 20.7601 34.9047C20.9296 34.8356 21.0745 34.7188 21.1765 34.5688C21.2784 34.4188 21.3329 34.2424 21.3329 34.0621C21.3253 33.8252 21.2242 33.6004 21.0511 33.4356C20.8778 33.2706 20.6462 33.1784 20.405 33.1786V33.1501Z" fill="#03C9FF"/>
<path d="M27.5148 32.6713C27.1292 32.6724 26.7519 32.561 26.4307 32.3513C26.1096 32.1415 25.8589 31.8428 25.7106 31.4929C25.5622 31.1431 25.5228 30.7578 25.5973 30.3859C25.6718 30.014 25.8569 29.6722 26.1292 29.4038C26.4015 29.1354 26.7487 28.9524 27.1268 28.8781C27.5049 28.8037 27.8969 28.8413 28.2534 28.9861C28.6097 29.1309 28.9144 29.3763 29.1287 29.6914C29.3431 30.0065 29.4575 30.377 29.4575 30.756C29.4575 31.263 29.253 31.7493 28.8889 32.1083C28.5247 32.4673 28.0306 32.6697 27.5148 32.6713ZM27.5148 29.8212C27.3297 29.8201 27.1484 29.8731 26.9939 29.9735C26.8396 30.0739 26.719 30.2172 26.6476 30.3851C26.5762 30.553 26.5572 30.738 26.5931 30.9165C26.6289 31.0951 26.718 31.2591 26.8489 31.3878C26.9798 31.5165 27.1467 31.6041 27.3283 31.6393C27.51 31.6745 27.6981 31.6559 27.869 31.5857C28.0398 31.5155 28.1856 31.397 28.2877 31.2452C28.3899 31.0934 28.4438 30.9152 28.4426 30.7332C28.4366 30.4953 28.3362 30.2692 28.1629 30.1031C27.9895 29.9369 27.7569 29.8439 27.5148 29.844V29.8212Z" fill="#03C9FF"/>
<path d="M26.0766 31.2577H23.6236C23.5564 31.2584 23.4897 31.2459 23.4275 31.221C23.3651 31.1961 23.3086 31.1591 23.261 31.1124C23.2136 31.0657 23.176 31.0101 23.1506 30.9489C23.1252 30.8877 23.1126 30.8221 23.1133 30.756V27.906H24.1282V30.2772H26.0766V31.2577Z" fill="#03C9FF"/>
<path d="M13.3244 32.6713C12.9388 32.6724 12.5615 32.561 12.2403 32.3513C11.9191 32.1415 11.6685 31.8428 11.5201 31.4929C11.3718 31.1431 11.3323 30.7578 11.4068 30.3859C11.4814 30.014 11.6665 29.6722 11.9388 29.4038C12.211 29.1354 12.5582 28.9524 12.9363 28.8781C13.3145 28.8037 13.7065 28.8413 14.0629 28.9861C14.4193 29.1309 14.7239 29.3763 14.9382 29.6914C15.1526 30.0065 15.2671 30.377 15.2671 30.756C15.2656 31.2625 15.0605 31.7479 14.6967 32.1066C14.3329 32.4653 13.8397 32.6683 13.3244 32.6713ZM13.3244 29.8212C13.1393 29.8201 12.9579 29.8731 12.8035 29.9735C12.6491 30.0739 12.5285 30.2172 12.4572 30.3851C12.3858 30.553 12.3668 30.738 12.4026 30.9165C12.4385 31.0951 12.5275 31.2591 12.6584 31.3878C12.7894 31.5165 12.9562 31.6041 13.1379 31.6393C13.3196 31.6745 13.5078 31.6559 13.6785 31.5857C13.8494 31.5155 13.9952 31.397 14.0973 31.2452C14.1994 31.0934 14.2534 30.9152 14.2522 30.7332C14.2462 30.4953 14.1458 30.2692 13.9724 30.1031C13.7991 29.9369 13.5665 29.8439 13.3244 29.844V29.8212Z" fill="#03C9FF"/>
<path d="M17.2156 31.2576H14.7568V30.2601H16.7053V27.8889H17.7201V30.7389C17.7233 30.8059 17.7125 30.8728 17.6886 30.9357C17.6647 30.9985 17.628 31.0559 17.5808 31.1044C17.5336 31.1529 17.477 31.1914 17.4142 31.2178C17.3514 31.2441 17.2839 31.2577 17.2156 31.2576Z" fill="#03C9FF"/>
<path d="M33.337 19.5269H28.4658V20.5244H33.337V19.5269Z" fill="#03C9FF"/>
<path d="M34.7751 21.9381C34.3892 21.9392 34.0117 21.8277 33.6904 21.6177C33.3691 21.4077 33.1184 21.1086 32.9703 20.7584C32.8221 20.4082 32.7829 20.0227 32.858 19.6506C32.933 19.2786 33.1187 18.9368 33.3915 18.6686C33.6643 18.4004 34.0121 18.2179 34.3906 18.1442C34.7691 18.0705 35.1613 18.1089 35.5176 18.2545C35.8739 18.4002 36.1781 18.6465 36.3918 18.9624C36.6054 19.2782 36.7189 19.6493 36.7178 20.0285C36.7162 20.5345 36.511 21.0193 36.147 21.3771C35.7831 21.7349 35.2898 21.9366 34.7751 21.9381ZM34.7751 19.1165C34.5915 19.1165 34.4121 19.1701 34.2596 19.2703C34.107 19.3705 33.9881 19.5129 33.9178 19.6795C33.8476 19.8462 33.8293 20.0296 33.8651 20.2065C33.9009 20.3834 33.9892 20.5459 34.119 20.6735C34.2488 20.801 34.414 20.8879 34.594 20.9231C34.7741 20.9583 34.9606 20.9402 35.1301 20.8711C35.2997 20.8021 35.4446 20.6852 35.5465 20.5353C35.6485 20.3853 35.7029 20.2089 35.7029 20.0285C35.7029 19.7867 35.6052 19.5547 35.4311 19.3837C35.2572 19.2127 35.0211 19.1165 34.7751 19.1165Z" fill="#03C9FF"/>
<path d="M31.3827 14.9611C30.9987 14.96 30.6236 14.847 30.3049 14.6366C29.9862 14.426 29.7382 14.1274 29.592 13.7784C29.4459 13.4294 29.4082 13.0456 29.4838 12.6756C29.5595 12.3056 29.7449 11.9658 30.0168 11.6994C30.2887 11.4329 30.6349 11.2516 31.0116 11.1784C31.3883 11.1052 31.7786 11.1433 32.1332 11.288C32.4878 11.4327 32.7909 11.6774 33.0041 11.9914C33.2173 12.3052 33.3311 12.6742 33.3311 13.0516C33.3296 13.5586 33.1236 14.0442 32.7584 14.4022C32.3932 14.7602 31.8984 14.9611 31.3827 14.9611ZM31.3827 12.1396C31.1994 12.1408 31.0206 12.1952 30.8687 12.2961C30.717 12.397 30.5989 12.5398 30.5296 12.7066C30.4602 12.8733 30.4427 13.0565 30.4792 13.233C30.5156 13.4096 30.6044 13.5715 30.7344 13.6985C30.8644 13.8255 31.0298 13.9118 31.2096 13.9465C31.3894 13.9812 31.5757 13.9628 31.7448 13.8936C31.9141 13.8244 32.0587 13.7076 32.1603 13.5577C32.262 13.4078 32.3163 13.2318 32.3163 13.0516C32.3163 12.9314 32.2921 12.8123 32.2451 12.7013C32.1981 12.5902 32.1293 12.4895 32.0425 12.4047C31.9557 12.32 31.8527 12.2529 31.7395 12.2074C31.6263 12.1619 31.505 12.1388 31.3827 12.1396Z" fill="#03C9FF"/>
<path d="M31.3824 17.3781H28.4829V16.3805H30.8953V14.4653H31.9101V16.8765C31.9109 16.944 31.8978 17.011 31.8713 17.0734C31.8449 17.1358 31.8058 17.1922 31.7564 17.2391C31.7069 17.2861 31.6483 17.3227 31.584 17.3465C31.5197 17.3705 31.4511 17.3811 31.3824 17.3781Z" fill="#03C9FF"/>
<path d="M31.3827 28.9091C30.9987 28.908 30.6236 28.795 30.3049 28.5846C29.9862 28.374 29.7382 28.0754 29.592 27.7264C29.4459 27.3774 29.4082 26.9936 29.4838 26.6236C29.5595 26.2536 29.7449 25.9138 30.0168 25.6474C30.2887 25.3809 30.6349 25.1996 31.0116 25.1264C31.3883 25.0532 31.7786 25.0913 32.1332 25.236C32.4878 25.3807 32.7909 25.6254 33.0041 25.9394C33.2173 26.2532 33.3311 26.6222 33.3311 26.9996C33.3296 27.5066 33.1236 27.9922 32.7584 28.3502C32.3932 28.7081 31.8984 28.9091 31.3827 28.9091ZM31.3827 26.0876C31.1994 26.0887 31.0206 26.1432 30.8687 26.244C30.717 26.345 30.5989 26.4878 30.5296 26.6545C30.4602 26.8213 30.4427 27.0044 30.4792 27.181C30.5156 27.3576 30.6044 27.5195 30.7344 27.6465C30.8644 27.7734 31.0298 27.8598 31.2096 27.8945C31.3894 27.9292 31.5757 27.9108 31.7448 27.8416C31.9141 27.7724 32.0587 27.6556 32.1603 27.5057C32.262 27.3558 32.3163 27.1798 32.3163 26.9996C32.3163 26.8794 32.2921 26.7603 32.2451 26.6493C32.1981 26.5382 32.1293 26.4374 32.0425 26.3527C31.9557 26.268 31.8527 26.2009 31.7395 26.1554C31.6263 26.1099 31.505 26.0868 31.3827 26.0876Z" fill="#03C9FF"/>
<path d="M31.893 25.586H30.8783V23.6765H28.4658V22.6733H31.3654C31.4324 22.6733 31.4987 22.6863 31.5606 22.7115C31.6226 22.7367 31.6788 22.7737 31.7262 22.8202C31.7736 22.8668 31.8112 22.9221 31.8368 22.9829C31.8624 23.0438 31.8757 23.1091 31.8757 23.1749L31.893 25.586Z" fill="#03C9FF"/>
<path d="M20.9733 7.32886H19.9585V12.1169H20.9733V7.32886Z" fill="#03C9FF"/>
<path d="M20.4689 7.83042C20.0833 7.83155 19.706 7.72018 19.3848 7.51042C19.0637 7.30066 18.813 7.00194 18.6647 6.65208C18.5163 6.30223 18.4769 5.91696 18.5514 5.54507C18.6259 5.17318 18.811 4.83139 19.0833 4.56297C19.3556 4.29456 19.7027 4.11158 20.0808 4.03722C20.4589 3.96286 20.851 4.00045 21.2074 4.14524C21.5638 4.29003 21.8685 4.5355 22.0828 4.85058C22.2972 5.16566 22.4116 5.53617 22.4116 5.91521C22.41 6.42171 22.2051 6.90712 21.8413 7.2658C21.4775 7.62449 20.9842 7.82741 20.4689 7.83042ZM20.4689 4.9804C20.2854 4.9804 20.106 5.03389 19.9535 5.1341C19.8008 5.23431 19.682 5.37675 19.6117 5.54339C19.5415 5.71004 19.5231 5.89341 19.5589 6.07033C19.5947 6.24724 19.6831 6.40975 19.8129 6.53729C19.9426 6.66483 20.108 6.75169 20.2879 6.78689C20.4679 6.82207 20.6544 6.80401 20.824 6.73499C20.9935 6.66596 21.1384 6.54907 21.2404 6.39909C21.3424 6.24911 21.3967 6.07278 21.3967 5.89241C21.3907 5.6545 21.2903 5.42834 21.1169 5.26221C20.9435 5.09607 20.711 5.00313 20.4689 5.0032V4.9804Z" fill="#03C9FF"/>
<path d="M13.3707 11.1593C12.9851 11.1604 12.6078 11.049 12.2867 10.8393C11.9655 10.6295 11.7149 10.3308 11.5665 9.98094C11.4181 9.63108 11.3787 9.24582 11.4532 8.87393C11.5277 8.50204 11.7128 8.16025 11.9851 7.89183C12.2574 7.62342 12.6046 7.44044 12.9827 7.36608C13.3608 7.29172 13.7528 7.32931 14.1093 7.4741C14.4656 7.61889 14.7703 7.86436 14.9846 8.17944C15.199 8.49452 15.3134 8.86502 15.3134 9.24406C15.3134 9.75102 15.1089 10.2373 14.7448 10.5963C14.3806 10.9553 13.8865 11.1578 13.3707 11.1593ZM13.3707 8.30926C13.1856 8.30813 13.0043 8.36114 12.8499 8.46154C12.6955 8.56194 12.5749 8.70521 12.5035 8.87313C12.4321 9.04105 12.4131 9.22604 12.449 9.40458C12.4848 9.58314 12.5739 9.74718 12.7048 9.87586C12.8357 10.0045 13.0026 10.0921 13.1843 10.1273C13.3659 10.1625 13.5541 10.1439 13.7249 10.0737C13.8958 10.0035 14.0415 9.88503 14.1436 9.73324C14.2458 9.58146 14.2997 9.40325 14.2986 9.22126C14.2925 8.98336 14.1921 8.7572 14.0188 8.59106C13.8454 8.42493 13.6129 8.33198 13.3707 8.33206V8.30926Z" fill="#03C9FF"/>
<path d="M17.7723 12.1168H16.7575V9.74559H14.8091V8.74808H17.262C17.3287 8.74733 17.395 8.7596 17.4569 8.78418C17.5187 8.80877 17.5751 8.84517 17.6225 8.8913C17.67 8.93743 17.7077 8.99235 17.7334 9.05289C17.7591 9.11343 17.7723 9.17838 17.7723 9.24399V12.1168Z" fill="#03C9FF"/>
<path d="M27.5612 11.1593C27.1756 11.1604 26.7983 11.049 26.4771 10.8393C26.156 10.6295 25.9053 10.3308 25.7569 9.98094C25.6085 9.63108 25.5691 9.24582 25.6437 8.87393C25.7182 8.50204 25.9033 8.16025 26.1756 7.89183C26.4479 7.62342 26.7951 7.44044 27.1732 7.36608C27.5513 7.29172 27.9433 7.32931 28.2997 7.4741C28.6561 7.61889 28.9608 7.86436 29.1751 8.17944C29.3895 8.49452 29.5039 8.86502 29.5039 9.24406C29.5039 9.75102 29.2994 10.2373 28.9352 10.5963C28.5711 10.9553 28.077 11.1578 27.5612 11.1593ZM27.5612 8.30926C27.376 8.30813 27.1947 8.36114 27.0403 8.46154C26.8859 8.56194 26.7654 8.70521 26.694 8.87313C26.6226 9.04105 26.6036 9.22604 26.6395 9.40458C26.6753 9.58314 26.7643 9.74718 26.8952 9.87586C27.0262 10.0045 27.1931 10.0921 27.3747 10.1273C27.5564 10.1625 27.7445 10.1439 27.9154 10.0737C28.0862 10.0035 28.232 9.88503 28.3341 9.73324C28.4363 9.58146 28.4902 9.40325 28.489 9.22126C28.483 8.98336 28.3826 8.7572 28.2093 8.59106C28.0359 8.42493 27.8033 8.33198 27.5612 8.33206V8.30926Z" fill="#03C9FF"/>
<path d="M24.1803 12.1169H23.1597V9.2669C23.1612 9.13486 23.2156 9.00874 23.3112 8.9159C23.4068 8.82306 23.5357 8.77099 23.67 8.771H26.123V9.7685H24.1803V12.1169Z" fill="#03C9FF"/>
<path d="M19.4307 22.0463L17.7549 20.399L18.474 19.6922L19.4307 20.6327L22.4115 17.7029L23.1305 18.4097L19.4307 22.0463Z" fill="#03C9FF"/>
<path d="M20.4399 27.1763C20.3524 27.1786 20.2661 27.1569 20.1906 27.1136C13.5739 23.3858 14.2755 15.1834 14.2814 15.1036C14.2911 14.9903 14.3403 14.8836 14.4205 14.8017C14.5007 14.7197 14.6072 14.6673 14.7221 14.6533C14.7569 14.6533 18.1609 14.2144 20.1558 12.8692C20.2403 12.8098 20.3417 12.7778 20.4457 12.7778C20.5497 12.7778 20.6511 12.8098 20.7357 12.8692C22.7305 14.2201 26.1345 14.6476 26.1693 14.6533C26.2838 14.6683 26.3897 14.721 26.4697 14.8028C26.5498 14.8846 26.5992 14.9906 26.61 15.1036C26.61 15.1834 27.3175 23.3858 20.7009 27.1136C20.6218 27.1587 20.5312 27.1805 20.4399 27.1763ZM15.273 15.5824C15.2324 17.15 15.4354 23.0894 20.4399 26.099C25.4561 23.0837 25.659 17.15 25.6126 15.5824C23.7991 15.3174 22.0478 14.7384 20.4399 13.8724C18.8333 14.7364 17.0841 15.3153 15.273 15.5824Z" fill="#03C9FF"/>
<path d="M12.42 19.4812H7.54883V20.4787H12.42V19.4812Z" stroke="#03C9FF" stroke-width="2"/>
<path d="M6.11054 21.8924C5.72566 21.8924 5.34941 21.7804 5.02925 21.5704C4.70908 21.3605 4.45934 21.062 4.31153 20.7128C4.16372 20.3634 4.12446 19.979 4.19871 19.6078C4.27296 19.2366 4.45738 18.8953 4.72872 18.627C5.00006 18.3587 5.34616 18.1754 5.72335 18.1002C6.10055 18.025 6.49195 18.0614 6.84818 18.2046C7.20441 18.3478 7.50951 18.5914 7.725 18.9049C7.94049 19.2184 8.05671 19.5875 8.059 19.9658C8.06053 20.2183 8.01126 20.4686 7.91402 20.7022C7.81679 20.9359 7.67351 21.1484 7.49243 21.3274C7.31134 21.5065 7.09603 21.6486 6.85887 21.7456C6.62172 21.8425 6.3674 21.8924 6.11054 21.8924ZM6.11054 19.0424C5.92887 19.048 5.75288 19.106 5.6044 19.209C5.45594 19.312 5.34152 19.4557 5.27538 19.6221C5.20925 19.7885 5.19428 19.9704 5.23236 20.145C5.27044 20.3198 5.35988 20.4796 5.48958 20.6048C5.61928 20.7299 5.78351 20.8149 5.96191 20.8491C6.1403 20.8833 6.32499 20.8653 6.49305 20.7972C6.6611 20.7292 6.80512 20.6141 6.90722 20.4663C7.00932 20.3185 7.06501 20.1445 7.06737 19.9658C7.06589 19.8446 7.03983 19.7248 6.99071 19.6136C6.94159 19.5024 6.87041 19.4019 6.78131 19.3181C6.69222 19.2342 6.58701 19.1686 6.47183 19.1252C6.35666 19.0818 6.23383 19.0614 6.11054 19.0652V19.0424Z" stroke="#03C9FF" stroke-width="2"/>
<path d="M9.49692 28.8634C9.11295 28.8623 8.73793 28.7494 8.41922 28.5389C8.10051 28.3284 7.85243 28.0298 7.70628 27.6808C7.56013 27.3317 7.52248 26.948 7.5981 26.5779C7.67371 26.2079 7.85918 25.8682 8.1311 25.6017C8.40302 25.3352 8.74918 25.1539 9.12586 25.0807C9.50254 25.0075 9.89285 25.0456 10.2475 25.1904C10.6021 25.335 10.9052 25.5798 11.1184 25.8937C11.3316 26.2076 11.4454 26.5765 11.4454 26.954C11.4439 27.4609 11.2379 27.9466 10.8726 28.3045C10.5074 28.6624 10.0127 28.8634 9.49692 28.8634ZM9.49692 26.0134C9.31366 26.0146 9.13485 26.069 8.98303 26.1699C8.83122 26.2708 8.7132 26.4136 8.64386 26.5804C8.57452 26.7471 8.55697 26.9303 8.59342 27.1068C8.62988 27.2834 8.7187 27.4454 8.84869 27.5723C8.97868 27.6993 9.14401 27.7856 9.32383 27.8203C9.50366 27.855 9.68992 27.8366 9.85912 27.7674C10.0283 27.6983 10.1729 27.5814 10.2746 27.4315C10.3763 27.2817 10.4306 27.1056 10.4306 26.9254C10.423 26.6876 10.3211 26.462 10.1467 26.2969C9.97224 26.1318 9.73906 26.0403 9.49692 26.042V26.0134Z" stroke="#03C9FF" stroke-width="2"/>
<path d="M10.0075 25.5404H8.99271V23.1293C8.99194 23.0637 9.00442 22.9986 9.02944 22.9378C9.05444 22.8769 9.09148 22.8216 9.13841 22.775C9.18534 22.7283 9.24121 22.6912 9.3028 22.666C9.36439 22.6407 9.43047 22.6277 9.49722 22.6277H12.3967V23.6252H10.0075V25.5404Z" stroke="#03C9FF" stroke-width="2"/>
<path d="M9.49728 14.9156C9.11167 14.9156 8.73472 14.8031 8.41417 14.5925C8.09363 14.3817 7.8439 14.0823 7.69659 13.732C7.54929 13.3817 7.51104 12.9963 7.58669 12.6247C7.66235 12.253 7.8485 11.9117 8.12157 11.6441C8.39465 11.3765 8.74238 11.1946 9.12072 11.1213C9.49907 11.0481 9.89102 11.0868 10.247 11.2326C10.6029 11.3785 10.9068 11.6248 11.1202 11.9405C11.3336 12.2563 11.4469 12.6271 11.4457 13.0061C11.4442 13.5131 11.2383 13.9987 10.873 14.3567C10.5078 14.7146 10.013 14.9156 9.49728 14.9156ZM9.49728 12.0656C9.31402 12.0667 9.13521 12.1212 8.98339 12.2221C8.83158 12.323 8.71356 12.4658 8.64422 12.6325C8.57488 12.7993 8.55733 12.9825 8.59379 13.159C8.63024 13.3355 8.71906 13.4975 8.84905 13.6245C8.97904 13.7515 9.14437 13.8377 9.32419 13.8725C9.50402 13.9072 9.69028 13.8888 9.85948 13.8197C10.0287 13.7505 10.1733 13.6335 10.2749 13.4837C10.3766 13.3339 10.4309 13.1577 10.4309 12.9776C10.4234 12.7397 10.3215 12.5141 10.147 12.3491C9.9726 12.184 9.73942 12.0925 9.49728 12.0941V12.0656Z" stroke="#03C9FF" stroke-width="2"/>
<path d="M12.4196 17.3323H9.52013C9.3858 17.3308 9.25749 17.2773 9.16303 17.1834C9.06858 17.0894 9.01561 16.9627 9.01563 16.8307V14.4138H10.0304V16.3291H12.4428L12.4196 17.3323Z" stroke="#03C9FF" stroke-width="2"/>
<path d="M20.927 27.8889H19.9121V32.6769H20.927V27.8889Z" stroke="#03C9FF" stroke-width="2"/>
<path d="M20.405 36.0001C20.0194 36.0001 19.6424 35.8877 19.3219 35.6769C19.0014 35.4663 18.7516 35.1668 18.6043 34.8165C18.457 34.4662 18.4187 34.0808 18.4944 33.7092C18.5701 33.3375 18.7562 32.9962 19.0293 32.7286C19.3024 32.461 19.6501 32.279 20.0285 32.2058C20.4068 32.1325 20.7988 32.1713 21.1547 32.3171C21.5106 32.463 21.8145 32.7093 22.0279 33.025C22.2413 33.3407 22.3546 33.7116 22.3535 34.0906C22.3519 34.5976 22.1459 35.0832 21.7807 35.4412C21.4155 35.7991 20.9208 36.0001 20.405 36.0001ZM20.405 33.1501C20.2215 33.1501 20.0421 33.2036 19.8895 33.3038C19.737 33.404 19.618 33.5464 19.5478 33.7131C19.4775 33.8797 19.4592 34.0631 19.495 34.2401C19.5308 34.4169 19.6192 34.5794 19.7489 34.707C19.8787 34.8345 20.044 34.9214 20.224 34.9566C20.404 34.9918 20.5905 34.9737 20.7601 34.9047C20.9296 34.8356 21.0745 34.7188 21.1765 34.5688C21.2784 34.4188 21.3329 34.2424 21.3329 34.0621C21.3253 33.8252 21.2242 33.6004 21.0511 33.4356C20.8778 33.2706 20.6462 33.1784 20.405 33.1786V33.1501Z" stroke="#03C9FF" stroke-width="2"/>
<path d="M27.5148 32.6713C27.1292 32.6724 26.7519 32.561 26.4307 32.3513C26.1096 32.1415 25.8589 31.8428 25.7106 31.4929C25.5622 31.1431 25.5228 30.7578 25.5973 30.3859C25.6718 30.014 25.8569 29.6722 26.1292 29.4038C26.4015 29.1354 26.7487 28.9524 27.1268 28.8781C27.5049 28.8037 27.8969 28.8413 28.2534 28.9861C28.6097 29.1309 28.9144 29.3763 29.1287 29.6914C29.3431 30.0065 29.4575 30.377 29.4575 30.756C29.4575 31.263 29.253 31.7493 28.8889 32.1083C28.5247 32.4673 28.0306 32.6697 27.5148 32.6713ZM27.5148 29.8212C27.3297 29.8201 27.1484 29.8731 26.9939 29.9735C26.8396 30.0739 26.719 30.2172 26.6476 30.3851C26.5762 30.553 26.5572 30.738 26.5931 30.9165C26.6289 31.0951 26.718 31.2591 26.8489 31.3878C26.9798 31.5165 27.1467 31.6041 27.3283 31.6393C27.51 31.6745 27.6981 31.6559 27.869 31.5857C28.0398 31.5155 28.1856 31.397 28.2877 31.2452C28.3899 31.0934 28.4438 30.9152 28.4426 30.7332C28.4366 30.4953 28.3362 30.2692 28.1629 30.1031C27.9895 29.9369 27.7569 29.8439 27.5148 29.844V29.8212Z" stroke="#03C9FF" stroke-width="2"/>
<path d="M26.0766 31.2577H23.6236C23.5564 31.2584 23.4897 31.2459 23.4275 31.221C23.3651 31.1961 23.3086 31.1591 23.261 31.1124C23.2136 31.0657 23.176 31.0101 23.1506 30.9489C23.1252 30.8877 23.1126 30.8221 23.1133 30.756V27.906H24.1282V30.2772H26.0766V31.2577Z" stroke="#03C9FF" stroke-width="2"/>
<path d="M13.3244 32.6713C12.9388 32.6724 12.5615 32.561 12.2403 32.3513C11.9191 32.1415 11.6685 31.8428 11.5201 31.4929C11.3718 31.1431 11.3323 30.7578 11.4068 30.3859C11.4814 30.014 11.6665 29.6722 11.9388 29.4038C12.211 29.1354 12.5582 28.9524 12.9363 28.8781C13.3145 28.8037 13.7065 28.8413 14.0629 28.9861C14.4193 29.1309 14.7239 29.3763 14.9382 29.6914C15.1526 30.0065 15.2671 30.377 15.2671 30.756C15.2656 31.2625 15.0605 31.7479 14.6967 32.1066C14.3329 32.4653 13.8397 32.6683 13.3244 32.6713ZM13.3244 29.8212C13.1393 29.8201 12.9579 29.8731 12.8035 29.9735C12.6491 30.0739 12.5285 30.2172 12.4572 30.3851C12.3858 30.553 12.3668 30.738 12.4026 30.9165C12.4385 31.0951 12.5275 31.2591 12.6584 31.3878C12.7894 31.5165 12.9562 31.6041 13.1379 31.6393C13.3196 31.6745 13.5078 31.6559 13.6785 31.5857C13.8494 31.5155 13.9952 31.397 14.0973 31.2452C14.1994 31.0934 14.2534 30.9152 14.2522 30.7332C14.2462 30.4953 14.1458 30.2692 13.9724 30.1031C13.7991 29.9369 13.5665 29.8439 13.3244 29.844V29.8212Z" stroke="#03C9FF" stroke-width="2"/>
<path d="M17.2156 31.2576H14.7568V30.2601H16.7053V27.8889H17.7201V30.7389C17.7233 30.8059 17.7125 30.8728 17.6886 30.9357C17.6647 30.9985 17.628 31.0559 17.5808 31.1044C17.5336 31.1529 17.477 31.1914 17.4142 31.2178C17.3514 31.2441 17.2839 31.2577 17.2156 31.2576Z" stroke="#03C9FF" stroke-width="2"/>
<path d="M33.337 19.5269H28.4658V20.5244H33.337V19.5269Z" stroke="#03C9FF" stroke-width="2"/>
<path d="M34.7751 21.9381C34.3892 21.9392 34.0117 21.8277 33.6904 21.6177C33.3691 21.4077 33.1184 21.1086 32.9703 20.7584C32.8221 20.4082 32.7829 20.0227 32.858 19.6506C32.933 19.2786 33.1187 18.9368 33.3915 18.6686C33.6643 18.4004 34.0121 18.2179 34.3906 18.1442C34.7691 18.0705 35.1613 18.1089 35.5176 18.2545C35.8739 18.4002 36.1781 18.6465 36.3918 18.9624C36.6054 19.2782 36.7189 19.6493 36.7178 20.0285C36.7162 20.5345 36.511 21.0193 36.147 21.3771C35.7831 21.7349 35.2898 21.9366 34.7751 21.9381ZM34.7751 19.1165C34.5915 19.1165 34.4121 19.1701 34.2596 19.2703C34.107 19.3705 33.9881 19.5129 33.9178 19.6795C33.8476 19.8462 33.8293 20.0296 33.8651 20.2065C33.9009 20.3834 33.9892 20.5459 34.119 20.6735C34.2488 20.801 34.414 20.8879 34.594 20.9231C34.7741 20.9583 34.9606 20.9402 35.1301 20.8711C35.2997 20.8021 35.4446 20.6852 35.5465 20.5353C35.6485 20.3853 35.7029 20.2089 35.7029 20.0285C35.7029 19.7867 35.6052 19.5547 35.4311 19.3837C35.2572 19.2127 35.0211 19.1165 34.7751 19.1165Z" stroke="#03C9FF" stroke-width="2"/>
<path d="M31.3827 14.9611C30.9987 14.96 30.6236 14.847 30.3049 14.6366C29.9862 14.426 29.7382 14.1274 29.592 13.7784C29.4459 13.4294 29.4082 13.0456 29.4838 12.6756C29.5595 12.3056 29.7449 11.9658 30.0168 11.6994C30.2887 11.4329 30.6349 11.2516 31.0116 11.1784C31.3883 11.1052 31.7786 11.1433 32.1332 11.288C32.4878 11.4327 32.7909 11.6774 33.0041 11.9914C33.2173 12.3052 33.3311 12.6742 33.3311 13.0516C33.3296 13.5586 33.1236 14.0442 32.7584 14.4022C32.3932 14.7602 31.8984 14.9611 31.3827 14.9611ZM31.3827 12.1396C31.1994 12.1408 31.0206 12.1952 30.8687 12.2961C30.717 12.397 30.5989 12.5398 30.5296 12.7066C30.4602 12.8733 30.4427 13.0565 30.4792 13.233C30.5156 13.4096 30.6044 13.5715 30.7344 13.6985C30.8644 13.8255 31.0298 13.9118 31.2096 13.9465C31.3894 13.9812 31.5757 13.9628 31.7448 13.8936C31.9141 13.8244 32.0587 13.7076 32.1603 13.5577C32.262 13.4078 32.3163 13.2318 32.3163 13.0516C32.3163 12.9314 32.2921 12.8123 32.2451 12.7013C32.1981 12.5902 32.1293 12.4895 32.0425 12.4047C31.9557 12.32 31.8527 12.2529 31.7395 12.2074C31.6263 12.1619 31.505 12.1388 31.3827 12.1396Z" stroke="#03C9FF" stroke-width="2"/>
<path d="M31.3824 17.3781H28.4829V16.3805H30.8953V14.4653H31.9101V16.8765C31.9109 16.944 31.8978 17.011 31.8713 17.0734C31.8449 17.1358 31.8058 17.1922 31.7564 17.2391C31.7069 17.2861 31.6483 17.3227 31.584 17.3465C31.5197 17.3705 31.4511 17.3811 31.3824 17.3781Z" stroke="#03C9FF" stroke-width="2"/>
<path d="M31.3827 28.9091C30.9987 28.908 30.6236 28.795 30.3049 28.5846C29.9862 28.374 29.7382 28.0754 29.592 27.7264C29.4459 27.3774 29.4082 26.9936 29.4838 26.6236C29.5595 26.2536 29.7449 25.9138 30.0168 25.6474C30.2887 25.3809 30.6349 25.1996 31.0116 25.1264C31.3883 25.0532 31.7786 25.0913 32.1332 25.236C32.4878 25.3807 32.7909 25.6254 33.0041 25.9394C33.2173 26.2532 33.3311 26.6222 33.3311 26.9996C33.3296 27.5066 33.1236 27.9922 32.7584 28.3502C32.3932 28.7081 31.8984 28.9091 31.3827 28.9091ZM31.3827 26.0876C31.1994 26.0887 31.0206 26.1432 30.8687 26.244C30.717 26.345 30.5989 26.4878 30.5296 26.6545C30.4602 26.8213 30.4427 27.0044 30.4792 27.181C30.5156 27.3576 30.6044 27.5195 30.7344 27.6465C30.8644 27.7734 31.0298 27.8598 31.2096 27.8945C31.3894 27.9292 31.5757 27.9108 31.7448 27.8416C31.9141 27.7724 32.0587 27.6556 32.1603 27.5057C32.262 27.3558 32.3163 27.1798 32.3163 26.9996C32.3163 26.8794 32.2921 26.7603 32.2451 26.6493C32.1981 26.5382 32.1293 26.4374 32.0425 26.3527C31.9557 26.268 31.8527 26.2009 31.7395 26.1554C31.6263 26.1099 31.505 26.0868 31.3827 26.0876Z" stroke="#03C9FF" stroke-width="2"/>
<path d="M31.893 25.586H30.8783V23.6765H28.4658V22.6733H31.3654C31.4324 22.6733 31.4987 22.6863 31.5606 22.7115C31.6226 22.7367 31.6788 22.7737 31.7262 22.8202C31.7736 22.8668 31.8112 22.9221 31.8368 22.9829C31.8624 23.0438 31.8757 23.1091 31.8757 23.1749L31.893 25.586Z" stroke="#03C9FF" stroke-width="2"/>
<path d="M20.9733 7.32886H19.9585V12.1169H20.9733V7.32886Z" stroke="#03C9FF" stroke-width="2"/>
<path d="M20.4689 7.83042C20.0833 7.83155 19.706 7.72018 19.3848 7.51042C19.0637 7.30066 18.813 7.00194 18.6647 6.65208C18.5163 6.30223 18.4769 5.91696 18.5514 5.54507C18.6259 5.17318 18.811 4.83139 19.0833 4.56297C19.3556 4.29456 19.7027 4.11158 20.0808 4.03722C20.4589 3.96286 20.851 4.00045 21.2074 4.14524C21.5638 4.29003 21.8685 4.5355 22.0828 4.85058C22.2972 5.16566 22.4116 5.53617 22.4116 5.91521C22.41 6.42171 22.2051 6.90712 21.8413 7.2658C21.4775 7.62449 20.9842 7.82741 20.4689 7.83042ZM20.4689 4.9804C20.2854 4.9804 20.106 5.03389 19.9535 5.1341C19.8008 5.23431 19.682 5.37675 19.6117 5.54339C19.5415 5.71004 19.5231 5.89341 19.5589 6.07033C19.5947 6.24724 19.6831 6.40975 19.8129 6.53729C19.9426 6.66483 20.108 6.75169 20.2879 6.78689C20.4679 6.82207 20.6544 6.80401 20.824 6.73499C20.9935 6.66596 21.1384 6.54907 21.2404 6.39909C21.3424 6.24911 21.3967 6.07278 21.3967 5.89241C21.3907 5.6545 21.2903 5.42834 21.1169 5.26221C20.9435 5.09607 20.711 5.00313 20.4689 5.0032V4.9804Z" stroke="#03C9FF" stroke-width="2"/>
<path d="M13.3707 11.1593C12.9851 11.1604 12.6078 11.049 12.2867 10.8393C11.9655 10.6295 11.7149 10.3308 11.5665 9.98094C11.4181 9.63108 11.3787 9.24582 11.4532 8.87393C11.5277 8.50204 11.7128 8.16025 11.9851 7.89183C12.2574 7.62342 12.6046 7.44044 12.9827 7.36608C13.3608 7.29172 13.7528 7.32931 14.1093 7.4741C14.4656 7.61889 14.7703 7.86436 14.9846 8.17944C15.199 8.49452 15.3134 8.86502 15.3134 9.24406C15.3134 9.75102 15.1089 10.2373 14.7448 10.5963C14.3806 10.9553 13.8865 11.1578 13.3707 11.1593ZM13.3707 8.30926C13.1856 8.30813 13.0043 8.36114 12.8499 8.46154C12.6955 8.56194 12.5749 8.70521 12.5035 8.87313C12.4321 9.04105 12.4131 9.22604 12.449 9.40458C12.4848 9.58314 12.5739 9.74718 12.7048 9.87586C12.8357 10.0045 13.0026 10.0921 13.1843 10.1273C13.3659 10.1625 13.5541 10.1439 13.7249 10.0737C13.8958 10.0035 14.0415 9.88503 14.1436 9.73324C14.2458 9.58146 14.2997 9.40325 14.2986 9.22126C14.2925 8.98336 14.1921 8.7572 14.0188 8.59106C13.8454 8.42493 13.6129 8.33198 13.3707 8.33206V8.30926Z" stroke="#03C9FF" stroke-width="2"/>
<path d="M17.7723 12.1168H16.7575V9.74559H14.8091V8.74808H17.262C17.3287 8.74733 17.395 8.7596 17.4569 8.78418C17.5187 8.80877 17.5751 8.84517 17.6225 8.8913C17.67 8.93743 17.7077 8.99235 17.7334 9.05289C17.7591 9.11343 17.7723 9.17838 17.7723 9.24399V12.1168Z" stroke="#03C9FF" stroke-width="2"/>
<path d="M27.5612 11.1593C27.1756 11.1604 26.7983 11.049 26.4771 10.8393C26.156 10.6295 25.9053 10.3308 25.7569 9.98094C25.6085 9.63108 25.5691 9.24582 25.6437 8.87393C25.7182 8.50204 25.9033 8.16025 26.1756 7.89183C26.4479 7.62342 26.7951 7.44044 27.1732 7.36608C27.5513 7.29172 27.9433 7.32931 28.2997 7.4741C28.6561 7.61889 28.9608 7.86436 29.1751 8.17944C29.3895 8.49452 29.5039 8.86502 29.5039 9.24406C29.5039 9.75102 29.2994 10.2373 28.9352 10.5963C28.5711 10.9553 28.077 11.1578 27.5612 11.1593ZM27.5612 8.30926C27.376 8.30813 27.1947 8.36114 27.0403 8.46154C26.8859 8.56194 26.7654 8.70521 26.694 8.87313C26.6226 9.04105 26.6036 9.22604 26.6395 9.40458C26.6753 9.58314 26.7643 9.74718 26.8952 9.87586C27.0262 10.0045 27.1931 10.0921 27.3747 10.1273C27.5564 10.1625 27.7445 10.1439 27.9154 10.0737C28.0862 10.0035 28.232 9.88503 28.3341 9.73324C28.4363 9.58146 28.4902 9.40325 28.489 9.22126C28.483 8.98336 28.3826 8.7572 28.2093 8.59106C28.0359 8.42493 27.8033 8.33198 27.5612 8.33206V8.30926Z" stroke="#03C9FF" stroke-width="2"/>
<path d="M24.1803 12.1169H23.1597V9.2669C23.1612 9.13486 23.2156 9.00874 23.3112 8.9159C23.4068 8.82306 23.5357 8.77099 23.67 8.771H26.123V9.7685H24.1803V12.1169Z" stroke="#03C9FF" stroke-width="2"/>
<path d="M19.4307 22.0463L17.7549 20.399L18.474 19.6922L19.4307 20.6327L22.4115 17.7029L23.1306 18.4097L19.4307 22.0463Z" stroke="#03C9FF" stroke-width="2"/>
<path d="M20.4399 27.1763C20.3524 27.1786 20.2661 27.1569 20.1906 27.1136C13.5739 23.3858 14.2755 15.1834 14.2814 15.1036C14.2911 14.9903 14.3403 14.8836 14.4205 14.8017C14.5007 14.7197 14.6072 14.6673 14.7221 14.6533C14.7569 14.6533 18.1609 14.2144 20.1558 12.8692C20.2403 12.8098 20.3417 12.7778 20.4457 12.7778C20.5497 12.7778 20.6511 12.8098 20.7357 12.8692C22.7305 14.2201 26.1345 14.6476 26.1693 14.6533C26.2838 14.6683 26.3897 14.721 26.4697 14.8028C26.5498 14.8846 26.5992 14.9906 26.61 15.1036C26.61 15.1834 27.3175 23.3858 20.7009 27.1136C20.6218 27.1587 20.5312 27.1805 20.4399 27.1763ZM15.273 15.5824C15.2324 17.15 15.4354 23.0894 20.4399 26.099C25.4561 23.0837 25.659 17.15 25.6126 15.5824C23.7991 15.3174 22.0478 14.7384 20.4399 13.8724C18.8333 14.7364 17.0841 15.3153 15.273 15.5824Z" stroke="#03C9FF" stroke-width="2"/>
</g>
</svg>
