<svg width="18" height="19" viewBox="0 0 18 19" fill="none" xmlns="http://www.w3.org/2000/svg">
<path d="M9 11.875C10.2426 11.875 11.25 10.8676 11.25 9.625C11.25 8.38236 10.2426 7.375 9 7.375C7.75736 7.375 6.75 8.38236 6.75 9.625C6.75 10.8676 7.75736 11.875 9 11.875Z" stroke="#5E636D" stroke-miterlimit="10" stroke-linecap="round" stroke-linejoin="round"/>
<path d="M1.5 10.285V8.965C1.5 8.185 2.1375 7.54 2.925 7.54C4.2825 7.54 4.8375 6.58 4.155 5.4025C3.765 4.7275 3.9975 3.85 4.68 3.46L5.9775 2.7175C6.57 2.365 7.335 2.575 7.6875 3.1675L7.77 3.31C8.445 4.4875 9.555 4.4875 10.2375 3.31L10.32 3.1675C10.6725 2.575 11.4375 2.365 12.03 2.7175L13.3275 3.46C14.01 3.85 14.2425 4.7275 13.8525 5.4025C13.17 6.58 13.725 7.54 15.0825 7.54C15.8625 7.54 16.5075 8.1775 16.5075 8.965V10.285C16.5075 11.065 15.87 11.71 15.0825 11.71C13.725 11.71 13.17 12.67 13.8525 13.8475C14.2425 14.53 14.01 15.4 13.3275 15.79L12.03 16.5325C11.4375 16.885 10.6725 16.675 10.32 16.0825L10.2375 15.94C9.5625 14.7625 8.4525 14.7625 7.77 15.94L7.6875 16.0825C7.335 16.675 6.57 16.885 5.9775 16.5325L4.68 15.79C3.9975 15.4 3.765 14.5225 4.155 13.8475C4.8375 12.67 4.2825 11.71 2.925 11.71C2.1375 11.71 1.5 11.065 1.5 10.285Z" stroke="#5E636D" stroke-miterlimit="10" stroke-linecap="round" stroke-linejoin="round"/>
</svg>
