<svg width="32" height="32" viewBox="0 0 32 32" fill="none" xmlns="http://www.w3.org/2000/svg">
<rect width="32" height="32" rx="16" fill="#008E10"/>
<path fill-rule="evenodd" clip-rule="evenodd" d="M17.9373 18.8799C17.0341 19.5819 15.8993 20 14.6668 20C11.7213 20 9.3335 17.6122 9.3335 14.6667C9.3335 11.7211 11.7213 9.33333 14.6668 9.33333C17.6123 9.33333 20.0002 11.7211 20.0002 14.6667C20.0002 15.8991 19.5821 17.034 18.8801 17.9371L22.4716 21.5286C22.7319 21.7889 22.7319 22.2111 22.4716 22.4714C22.2112 22.7318 21.7891 22.7318 21.5288 22.4714L17.9373 18.8799ZM18.6668 14.6667C18.6668 16.8758 16.876 18.6667 14.6668 18.6667C12.4577 18.6667 10.6668 16.8758 10.6668 14.6667C10.6668 12.4575 12.4577 10.6667 14.6668 10.6667C16.876 10.6667 18.6668 12.4575 18.6668 14.6667Z" fill="#FCFCFD"/>
</svg>
