<svg width="48" height="48" viewBox="0 0 48 48" fill="none" xmlns="http://www.w3.org/2000/svg">
<rect width="48" height="48" rx="8" fill="#F8F8F9"/>
<path fill-rule="evenodd" clip-rule="evenodd" d="M24.4652 9.99127C24.1766 9.82891 23.8242 9.82891 23.5355 9.99127L11.8417 16.569C11.5432 16.737 11.3584 17.0529 11.3584 17.3954V30.5086C11.3584 30.8512 11.5432 31.1671 11.8417 31.335L23.5355 37.9128C23.8242 38.0751 24.1766 38.0751 24.4652 37.9128L36.159 31.335C36.4576 31.1671 36.6423 30.8512 36.6423 30.5086V17.3954C36.6423 17.0529 36.4576 16.737 36.159 16.569L24.4652 9.99127ZM24.4781 13.1689C24.1829 12.9967 23.8178 12.9967 23.5226 13.1689L14.9893 18.1467C14.698 18.3166 14.5189 18.6285 14.5189 18.9657V28.9382C14.5189 29.2755 14.698 29.5873 14.9893 29.7572L23.5226 34.735C23.8178 34.9072 24.1829 34.9072 24.4781 34.735L33.0114 29.7572C33.3027 29.5873 33.4818 29.2755 33.4818 28.9382V18.9657C33.4818 18.6285 33.3027 18.3166 33.0114 18.1467L24.4781 13.1689Z" fill="#FF35C5" fill-opacity="0.15"/>
<path fill-rule="evenodd" clip-rule="evenodd" d="M24.7827 9.91575C24.2957 9.64178 23.7009 9.64179 23.2138 9.91575L12.0138 16.2158C11.51 16.4992 11.1982 17.0322 11.1982 17.6103V30.1387C11.1982 30.7169 11.51 31.2499 12.0138 31.5333L23.2138 37.8333C23.7009 38.1073 24.2957 38.1073 24.7827 37.8333L35.9827 31.5333C36.4865 31.2499 36.7982 30.7169 36.7982 30.1387V17.6103C36.7982 17.0322 36.4865 16.4992 35.9826 16.2158L24.7827 9.91575ZM35.5905 16.913L24.3905 10.613C24.1469 10.476 23.8495 10.476 23.6061 10.613L12.406 16.913C12.1541 17.0547 11.9982 17.3213 11.9982 17.6103V30.1387C11.9982 30.4278 12.1541 30.6943 12.406 30.8361L23.6061 37.1361C23.8495 37.273 24.1469 37.273 24.3905 37.1361L35.5905 30.8361C35.8423 30.6943 35.9982 30.4278 35.9982 30.1387V17.6103C35.9982 17.3213 35.8423 17.0547 35.5905 16.913Z" fill="#FF35C5"/>
<path d="M19.1 30V30.5H19.6H20.4H20.9V30V29.7H27.1V30V30.5H27.6H28.4H28.9V30V29.6971C29.7923 29.6453 30.5 28.9053 30.5 28V19.2C30.5 18.2611 29.7389 17.5 28.8 17.5H19.2C18.2611 17.5 17.5 18.2611 17.5 19.2V28C17.5 28.9053 18.2077 29.6453 19.1 29.6971V30Z" fill="#E6ECFF" stroke="#FF35C5"/>
</svg>
