<svg width="18" height="19" viewBox="0 0 18 19" fill="none" xmlns="http://www.w3.org/2000/svg">
<path d="M13.5 14.77H12.93C12.33 14.77 11.76 15.0025 11.34 15.4225L10.0575 16.69C9.47248 17.2675 8.52001 17.2675 7.93501 16.69L6.6525 15.4225C6.2325 15.0025 5.655 14.77 5.0625 14.77H4.5C3.255 14.77 2.25 13.7725 2.25 12.5425V4.3525C2.25 3.1225 3.255 2.125 4.5 2.125H13.5C14.745 2.125 15.75 3.1225 15.75 4.3525V12.535C15.75 13.765 14.745 14.77 13.5 14.77Z" stroke="#5E636D" stroke-miterlimit="10" stroke-linecap="round" stroke-linejoin="round"/>
<path d="M9.05255 7.3375C9.02255 7.3375 8.97753 7.3375 8.94003 7.3375C8.15253 7.3075 7.53003 6.67 7.53003 5.875C7.53003 5.065 8.18254 4.4125 8.99254 4.4125C9.80254 4.4125 10.455 5.0725 10.455 5.875C10.4625 6.67 9.84005 7.315 9.05255 7.3375Z" stroke="#5E636D" stroke-linecap="round" stroke-linejoin="round"/>
<path d="M6.93758 9.595C5.94008 10.2625 5.94008 11.35 6.93758 12.0175C8.07008 12.775 9.93008 12.775 11.0626 12.0175C12.0601 11.35 12.0601 10.2625 11.0626 9.595C9.93008 8.845 8.07758 8.845 6.93758 9.595Z" stroke="#5E636D" stroke-linecap="round" stroke-linejoin="round"/>
</svg>
