<svg width="37" height="37" viewBox="0 0 37 37" fill="none" xmlns="http://www.w3.org/2000/svg">
<rect width="37" height="37" rx="10" fill="#288AF0"/>
<path d="M26.4399 22.5625C26.1924 24.5575 24.5574 26.1925 22.5624 26.44C21.3549 26.59 20.2299 26.26 19.3524 25.615C18.8499 25.2475 18.9699 24.4675 19.5699 24.2875C21.8274 23.605 23.6049 21.82 24.2949 19.5625C24.4749 18.97 25.2549 18.85 25.6224 19.345C26.2599 20.23 26.5899 21.355 26.4399 22.5625Z" fill="white"/>
<path d="M17.4925 11.5C14.185 11.5 11.5 14.185 11.5 17.4925C11.5 20.8 14.185 23.485 17.4925 23.485C20.8 23.485 23.485 20.8 23.485 17.4925C23.4775 14.185 20.8 11.5 17.4925 11.5ZM16.7875 16.6525L18.595 17.2825C19.2475 17.515 19.5625 17.9725 19.5625 18.6775C19.5625 19.4875 18.9175 20.155 18.13 20.155H18.0625V20.1925C18.0625 20.5 17.8075 20.755 17.5 20.755C17.1925 20.755 16.9375 20.5 16.9375 20.1925V20.1475C16.105 20.11 15.4375 19.4125 15.4375 18.5425C15.4375 18.235 15.6925 17.98 16 17.98C16.3075 17.98 16.5625 18.235 16.5625 18.5425C16.5625 18.8125 16.7575 19.03 16.9975 19.03H18.1225C18.295 19.03 18.43 18.8725 18.43 18.6775C18.43 18.415 18.385 18.4 18.2125 18.34L16.405 17.71C15.76 17.485 15.4375 17.0275 15.4375 16.315C15.4375 15.505 16.0825 14.8375 16.87 14.8375H16.9375V14.8075C16.9375 14.5 17.1925 14.245 17.5 14.245C17.8075 14.245 18.0625 14.5 18.0625 14.8075V14.8525C18.895 14.89 19.5625 15.5875 19.5625 16.4575C19.5625 16.765 19.3075 17.02 19 17.02C18.6925 17.02 18.4375 16.765 18.4375 16.4575C18.4375 16.1875 18.2425 15.97 18.0025 15.97H16.8775C16.705 15.97 16.57 16.1275 16.57 16.3225C16.5625 16.5775 16.6075 16.5925 16.7875 16.6525Z" fill="white"/>
</svg>
