<svg width="37" height="37" viewBox="0 0 37 37" fill="none" xmlns="http://www.w3.org/2000/svg">
<rect width="37" height="37" rx="10" fill="#008E10"/>
<path d="M18.9549 11.2825L17.1474 15.49H15.3399C15.0399 15.49 14.7474 15.5125 14.4624 15.5725L15.2124 13.7725L15.2424 13.705L15.2874 13.585C15.3099 13.5325 15.3249 13.4875 15.3474 13.45C16.2174 11.4325 17.1924 10.8025 18.9549 11.2825Z" fill="white"/>
<path d="M24.0473 15.6925L24.0323 15.685C23.5823 15.5575 23.1248 15.49 22.6598 15.49H17.9648L19.6523 11.5675L19.6748 11.515C19.7798 11.5525 19.8923 11.605 20.0048 11.6425L21.6623 12.34C22.5848 12.7225 23.2298 13.12 23.6273 13.6C23.6948 13.69 23.7548 13.7725 23.8148 13.87C23.8823 13.975 23.9348 14.08 23.9648 14.1925C23.9948 14.26 24.0173 14.32 24.0323 14.3875C24.1448 14.77 24.1523 15.205 24.0473 15.6925Z" fill="white"/>
<path d="M19.3901 22.87H19.5776C19.8026 22.87 19.9901 22.6675 19.9901 22.42C19.9901 22.105 19.9001 22.06 19.7051 21.985L19.3901 21.8725V22.87Z" fill="white"/>
<path d="M23.7177 16.765C23.3802 16.6675 23.0277 16.615 22.6602 16.615H15.3402C14.8302 16.615 14.3502 16.7125 13.9002 16.9075C12.5952 17.47 11.6802 18.7675 11.6802 20.275V21.7375C11.6802 21.9175 11.6952 22.09 11.7177 22.27C11.8827 24.655 13.1577 25.93 15.5427 26.0875C15.7152 26.11 15.8877 26.125 16.0752 26.125H21.9252C24.7002 26.125 26.1627 24.805 26.3052 22.18C26.3127 22.0375 26.3202 21.8875 26.3202 21.7375V20.275C26.3202 18.6175 25.2177 17.2225 23.7177 16.765ZM19.9602 21.25C20.3052 21.37 20.7702 21.625 20.7702 22.42C20.7702 23.1025 20.2377 23.65 19.5777 23.65H19.3902V23.815C19.3902 24.0325 19.2177 24.205 19.0002 24.205C18.7827 24.205 18.6102 24.0325 18.6102 23.815V23.65H18.5427C17.8227 23.65 17.2302 23.0425 17.2302 22.2925C17.2302 22.075 17.4027 21.9025 17.6202 21.9025C17.8377 21.9025 18.0102 22.075 18.0102 22.2925C18.0102 22.6075 18.2502 22.87 18.5427 22.87H18.6102V21.6025L18.0402 21.4C17.6952 21.28 17.2302 21.025 17.2302 20.23C17.2302 19.5475 17.7627 19 18.4227 19H18.6102V18.835C18.6102 18.6175 18.7827 18.445 19.0002 18.445C19.2177 18.445 19.3902 18.6175 19.3902 18.835V19H19.4577C20.1777 19 20.7702 19.6075 20.7702 20.3575C20.7702 20.575 20.5977 20.7475 20.3802 20.7475C20.1627 20.7475 19.9902 20.575 19.9902 20.3575C19.9902 20.0425 19.7502 19.78 19.4577 19.78H19.3902V21.0475L19.9602 21.25Z" fill="white"/>
<path d="M18.0098 20.23C18.0098 20.545 18.0998 20.59 18.2948 20.665L18.6098 20.7775V19.78H18.4223C18.1898 19.78 18.0098 19.9825 18.0098 20.23Z" fill="white"/>
</svg>
