<svg width="37" height="37" viewBox="0 0 37 37" fill="none" xmlns="http://www.w3.org/2000/svg">
<rect width="37" height="37" rx="10" fill="#FFC700"/>
<path d="M23.1475 15.8275C23.095 15.82 23.0425 15.82 22.99 15.8275C21.8275 15.79 20.905 14.8375 20.905 13.6675C20.905 12.475 21.8725 11.5 23.0725 11.5C24.265 11.5 25.24 12.4675 25.24 13.6675C25.2325 14.8375 24.31 15.79 23.1475 15.8275Z" fill="white"/>
<path d="M25.5925 21.025C24.7525 21.5875 23.575 21.7975 22.4875 21.655C22.7725 21.04 22.9225 20.3575 22.93 19.6375C22.93 18.8875 22.765 18.175 22.45 17.5525C23.56 17.4025 24.7375 17.6125 25.585 18.175C26.77 18.955 26.77 20.2375 25.5925 21.025Z" fill="white"/>
<path d="M14.83 15.8275C14.8825 15.82 14.935 15.82 14.9875 15.8275C16.15 15.79 17.0725 14.8375 17.0725 13.6675C17.0725 12.4675 16.105 11.5 14.905 11.5C13.7125 11.5 12.745 12.4675 12.745 13.6675C12.745 14.8375 13.6675 15.79 14.83 15.8275Z" fill="white"/>
<path d="M14.9125 19.6375C14.9125 20.365 15.07 21.055 15.355 21.6775C14.2975 21.79 13.195 21.565 12.385 21.0325C11.2 20.245 11.2 18.9625 12.385 18.175C13.1875 17.635 14.32 17.4175 15.385 17.5375C15.0775 18.1675 14.9125 18.88 14.9125 19.6375Z" fill="white"/>
<path d="M19.09 21.9025C19.03 21.895 18.9625 21.895 18.895 21.9025C17.515 21.8575 16.4125 20.725 16.4125 19.33C16.42 17.905 17.5675 16.75 19 16.75C20.425 16.75 21.58 17.905 21.58 19.33C21.5725 20.725 20.4775 21.8575 19.09 21.9025Z" fill="white"/>
<path d="M16.6525 23.455C15.52 24.2125 15.52 25.4575 16.6525 26.2075C17.9425 27.07 20.0575 27.07 21.3475 26.2075C22.48 25.45 22.48 24.205 21.3475 23.455C20.065 22.5925 17.95 22.5925 16.6525 23.455Z" fill="white"/>
</svg>
