<svg width="37" height="37" viewBox="0 0 37 37" fill="none" xmlns="http://www.w3.org/2000/svg">
<rect width="37" height="37" rx="10" fill="#FFC700"/>
<path d="M26.4775 11.7475C25.9375 11.1325 25.135 10.75 24.25 10.75C23.41 10.75 22.645 11.095 22.0975 11.6575C21.7825 11.98 21.5425 12.37 21.4 12.805C21.3025 13.105 21.25 13.42 21.25 13.75C21.25 14.3125 21.4075 14.845 21.685 15.295C21.835 15.55 22.03 15.7825 22.255 15.9775C22.78 16.4575 23.4775 16.75 24.25 16.75C24.58 16.75 24.895 16.6975 25.1875 16.5925C25.8775 16.375 26.455 15.9025 26.815 15.295C26.9725 15.04 27.0925 14.7475 27.16 14.4475C27.22 14.2225 27.25 13.99 27.25 13.75C27.25 12.985 26.9575 12.28 26.4775 11.7475ZM25.3675 14.2975H24.8125V14.8825C24.8125 15.19 24.5575 15.445 24.25 15.445C23.9425 15.445 23.6875 15.19 23.6875 14.8825V14.2975H23.1325C22.825 14.2975 22.57 14.0425 22.57 13.735C22.57 13.4275 22.825 13.1725 23.1325 13.1725H23.6875V12.64C23.6875 12.3325 23.9425 12.0775 24.25 12.0775C24.5575 12.0775 24.8125 12.3325 24.8125 12.64V13.1725H25.3675C25.675 13.1725 25.93 13.4275 25.93 13.735C25.93 14.0425 25.6825 14.2975 25.3675 14.2975Z" fill="white"/>
<path d="M26.5 19C26.5 18.0175 26.3125 17.0725 25.96 16.21C25.7275 16.375 25.465 16.5025 25.1875 16.5925C25.105 16.6225 25.0225 16.645 24.9325 16.6675C25.2175 17.3875 25.375 18.175 25.375 19C25.375 20.74 24.67 22.3225 23.53 23.4775C23.3125 23.2 23.035 22.945 22.705 22.7275C20.6725 21.3625 17.3425 21.3625 15.295 22.7275C14.965 22.945 14.695 23.2 14.47 23.4775C13.33 22.3225 12.625 20.74 12.625 19C12.625 15.4825 15.4825 12.625 19 12.625C19.8175 12.625 20.605 12.7825 21.325 13.0675C21.3475 12.9775 21.37 12.895 21.4 12.805C21.49 12.5275 21.6175 12.2725 21.79 12.04C20.9275 11.6875 19.9825 11.5 19 11.5C14.8675 11.5 11.5 14.8675 11.5 19C11.5 21.175 12.4375 23.1325 13.9225 24.505C13.9225 24.5125 13.9225 24.5125 13.915 24.52C13.99 24.595 14.08 24.655 14.155 24.7225C14.2 24.76 14.2375 24.7975 14.2825 24.8275C14.4175 24.94 14.5675 25.045 14.71 25.15C14.7625 25.1875 14.8075 25.2175 14.86 25.255C15.0025 25.3525 15.1525 25.4425 15.31 25.525C15.3625 25.555 15.4225 25.5925 15.475 25.6225C15.625 25.705 15.7825 25.78 15.9475 25.8475C16.0075 25.8775 16.0675 25.9075 16.1275 25.93C16.2925 25.9975 16.4575 26.0575 16.6225 26.11C16.6825 26.1325 16.7425 26.155 16.8025 26.17C16.9825 26.2225 17.1625 26.2675 17.3425 26.3125C17.395 26.3275 17.4475 26.3425 17.5075 26.35C17.7175 26.395 17.9275 26.425 18.145 26.4475C18.175 26.4475 18.205 26.455 18.235 26.4625C18.49 26.485 18.745 26.5 19 26.5C19.255 26.5 19.51 26.485 19.7575 26.4625C19.7875 26.4625 19.8175 26.455 19.8475 26.4475C20.065 26.425 20.275 26.395 20.485 26.35C20.5375 26.3425 20.59 26.32 20.65 26.3125C20.83 26.2675 21.0175 26.23 21.19 26.17C21.25 26.1475 21.31 26.125 21.37 26.11C21.535 26.05 21.7075 25.9975 21.865 25.93C21.925 25.9075 21.985 25.8775 22.045 25.8475C22.2025 25.78 22.36 25.705 22.5175 25.6225C22.5775 25.5925 22.63 25.555 22.6825 25.525C22.8325 25.435 22.9825 25.3525 23.1325 25.255C23.185 25.225 23.23 25.1875 23.2825 25.15C23.4325 25.045 23.575 24.94 23.71 24.8275C23.755 24.79 23.7925 24.7525 23.8375 24.7225C23.92 24.655 24.0025 24.5875 24.0775 24.52C24.0775 24.5125 24.0775 24.5125 24.07 24.505C25.5625 23.1325 26.5 21.175 26.5 19Z" fill="white"/>
<path d="M19 15.1975C17.4475 15.1975 16.1875 16.4575 16.1875 18.01C16.1875 19.5325 17.38 20.77 18.9625 20.815C18.985 20.815 19.015 20.815 19.03 20.815C19.045 20.815 19.0675 20.815 19.0825 20.815C19.09 20.815 19.0975 20.815 19.0975 20.815C20.6125 20.7625 21.805 19.5325 21.8125 18.01C21.8125 16.4575 20.5525 15.1975 19 15.1975Z" fill="white"/>
</svg>
