<svg width="32" height="31" viewBox="0 0 32 31" fill="none" xmlns="http://www.w3.org/2000/svg">
<path fill-rule="evenodd" clip-rule="evenodd" d="M31.2777 15.292C31.2777 23.7297 24.4376 30.5698 15.9999 30.5698C7.56226 30.5698 0.722168 23.7297 0.722168 15.292C0.722168 6.85432 7.56226 0.0142212 15.9999 0.0142212C24.4376 0.0142212 31.2777 6.85432 31.2777 15.292ZM8.80853 12.6839L14.9196 6.57281C15.5163 5.97617 16.4836 5.97617 17.0802 6.57281L23.1914 12.6839C23.788 13.2806 23.788 14.2479 23.1914 14.8445C22.5947 15.4412 21.6274 15.4412 21.0308 14.8445L17.5277 11.3415V22.9309C17.5277 23.7747 16.8437 24.4587 15.9999 24.4587C15.1562 24.4587 14.4722 23.7747 14.4722 22.9309V11.3415L10.9691 14.8445C10.3725 15.4412 9.40517 15.4412 8.80853 14.8445C8.2119 14.2479 8.2119 13.2806 8.80853 12.6839Z" fill="#5C5F62"/>
</svg>
