<svg width="18" height="19" viewBox="0 0 18 19" fill="none" xmlns="http://www.w3.org/2000/svg">
<path d="M8.59505 10.9225C9.75899 10.9225 10.7025 9.97893 10.7025 8.81499C10.7025 7.65105 9.75899 6.70749 8.59505 6.70749C7.43111 6.70749 6.48755 7.65105 6.48755 8.81499C6.48755 9.97893 7.43111 10.9225 8.59505 10.9225Z" stroke="#292D32" stroke-linecap="round" stroke-linejoin="round"/>
<path d="M12.4875 15.775C12.4875 14.0275 10.7475 12.6025 8.59501 12.6025C6.44251 12.6025 4.70251 14.02 4.70251 15.775" stroke="#292D32" stroke-linecap="round" stroke-linejoin="round"/>
<path d="M15.75 10C15.75 13.9375 12.5625 17.125 8.625 17.125C4.6875 17.125 1.5 13.9375 1.5 10C1.5 6.0625 4.6875 2.875 8.625 2.875C9.6075 2.875 10.545 3.06999 11.4 3.42999C11.3025 3.72999 11.25 4.045 11.25 4.375C11.25 4.9375 11.4075 5.47 11.685 5.92C11.835 6.175 12.03 6.40748 12.255 6.60248C12.78 7.08248 13.4775 7.375 14.25 7.375C14.58 7.375 14.895 7.32248 15.1875 7.21748C15.5475 8.07248 15.75 9.0175 15.75 10Z" stroke="#292D32" stroke-linecap="round" stroke-linejoin="round"/>
<path d="M17.25 4.375C17.25 4.615 17.22 4.84749 17.16 5.07249C17.0925 5.37249 16.9725 5.665 16.815 5.92C16.455 6.5275 15.8775 6.99998 15.1875 7.21748C14.895 7.32248 14.58 7.375 14.25 7.375C13.4775 7.375 12.78 7.08248 12.255 6.60248C12.03 6.40748 11.835 6.175 11.685 5.92C11.4075 5.47 11.25 4.9375 11.25 4.375C11.25 4.045 11.3025 3.72999 11.4 3.42999C11.5425 2.99499 11.7825 2.60502 12.0975 2.28252C12.645 1.72002 13.41 1.375 14.25 1.375C15.135 1.375 15.9375 1.75751 16.4775 2.37251C16.9575 2.90501 17.25 3.61 17.25 4.375Z" stroke="#292D32" stroke-miterlimit="10" stroke-linecap="round" stroke-linejoin="round"/>
<path d="M15.3674 4.35999H13.1324" stroke="#292D32" stroke-miterlimit="10" stroke-linecap="round" stroke-linejoin="round"/>
<path d="M14.25 3.26501V5.50751" stroke="#292D32" stroke-miterlimit="10" stroke-linecap="round" stroke-linejoin="round"/>
</svg>
