<svg width="18" height="19" viewBox="0 0 18 19" fill="none" xmlns="http://www.w3.org/2000/svg">
<path d="M9.49497 2.5136L9.47247 2.5661L7.29747 7.6136H5.15997C4.64997 7.6136 4.16247 7.7186 3.71997 7.9061L5.03247 4.7711L5.06247 4.6961L5.11497 4.5761C5.12997 4.5311 5.14497 4.4861 5.16747 4.4486C6.14997 2.1761 7.25997 1.6586 9.49497 2.5136Z" stroke="#5E636D" stroke-linecap="round" stroke-linejoin="round"/>
<path d="M13.5376 7.7636C13.2001 7.6586 12.8401 7.6136 12.4801 7.6136H7.29761L9.47261 2.5661L9.49511 2.5136C9.60761 2.5511 9.71261 2.6036 9.82511 2.6486L11.4826 3.3461C12.4051 3.7286 13.0501 4.1261 13.4401 4.6061C13.5151 4.6961 13.5751 4.7786 13.6276 4.8761C13.6951 4.9811 13.7476 5.0861 13.7776 5.1986C13.8076 5.2661 13.8301 5.3336 13.8451 5.3936C14.0476 6.0236 13.9276 6.7961 13.5376 7.7636Z" stroke="#5E636D" stroke-linecap="round" stroke-linejoin="round"/>
<path d="M16.1413 11.2738V12.7363C16.1413 12.8863 16.1338 13.0363 16.1263 13.1863C15.9838 15.8038 14.5213 17.1238 11.7463 17.1238H5.89629C5.71629 17.1238 5.53629 17.1088 5.36379 17.0863C2.97879 16.9288 1.70379 15.6538 1.54629 13.2688C1.52379 13.0963 1.50879 12.9163 1.50879 12.7363V11.2738C1.50879 9.76627 2.42379 8.46877 3.72879 7.90627C4.17879 7.71877 4.65879 7.61377 5.16879 7.61377H12.4888C12.8563 7.61377 13.2163 7.66627 13.5463 7.76377C15.0388 8.22127 16.1413 9.61627 16.1413 11.2738Z" stroke="#5E636D" stroke-linecap="round" stroke-linejoin="round"/>

<path d="M5.0325 4.7711L3.72 7.9061C2.415 8.4686 1.5 9.7661 1.5 11.2736V9.0761C1.5 6.9461 3.015 5.1686 5.0325 4.7711Z" stroke="#5E636D" stroke-linecap="round" stroke-linejoin="round"/>
<path d="M16.1389 9.07574V11.2732C16.1389 9.62324 15.0439 8.22074 13.5439 7.77074C13.9339 6.79574 14.0464 6.03074 13.8589 5.39324C13.8439 5.32574 13.8214 5.25824 13.7914 5.19824C15.1864 5.91824 16.1389 7.39574 16.1389 9.07574Z" stroke="#5E636D" stroke-linecap="round" stroke-linejoin="round"/>
<path d="M7.5 13.7899C7.5 14.4349 7.995 14.9549 8.61 14.9549H9.865C10.4 14.9549 10.835 14.4999 10.835 13.9399C10.835 13.3299 10.57 13.1149 10.175 12.9749L8.16 12.2749C7.765 12.1349 7.5 11.9199 7.5 11.3099C7.5 10.7499 7.935 10.2949 8.47 10.2949H9.725C10.34 10.2949 10.835 10.8149 10.835 11.4599" stroke="#5E636D" stroke-linecap="round" stroke-linejoin="round"/>
<path d="M9.16406 9.625V15.625" stroke="#5E636D" stroke-linecap="round" stroke-linejoin="round"/>
</svg>
