<svg width="25" height="25" viewBox="0 0 25 25" fill="none" xmlns="http://www.w3.org/2000/svg">
<path d="M19.0601 6.74998H20.4201C20.2301 6.47998 20.0301 6.22998 19.8201 5.97998L19.0601 6.74998Z" fill="white"/>
<path d="M18.77 4.92001C18.52 4.71001 18.27 4.51001 18 4.32001V5.68001L18.77 4.92001Z" fill="white"/>
<path d="M19.83 5.98L22.78 3.03C23.07 2.74 23.07 2.26 22.78 1.97C22.49 1.68 22.01 1.68 21.72 1.97L18.77 4.92C19.15 5.25 19.5 5.61 19.83 5.98Z" fill="white"/>
<path d="M18 3.5C18 3.09 17.66 2.75 17.25 2.75C16.85 2.75 16.53 3.07 16.51 3.46C17.03 3.71 17.53 3.99 18 4.32V3.5Z" fill="white"/>
<path d="M21.9999 7.5C21.9999 7.09 21.6599 6.75 21.2499 6.75H20.4199C20.7499 7.22 21.0399 7.72 21.2799 8.24C21.6799 8.22 21.9999 7.9 21.9999 7.5Z" fill="white"/>
<path d="M13 15.25H13.3C13.69 15.25 14 14.9 14 14.47C14 13.93 13.85 13.85 13.51 13.73L13 13.55V15.25Z" fill="white"/>
<path d="M21.29 8.24C21.28 8.24 21.27 8.25 21.25 8.25H17.25C17.15 8.25 17.06 8.23 16.96 8.19C16.78 8.11 16.63 7.97 16.55 7.78C16.52 7.69 16.5 7.6 16.5 7.5V3.5C16.5 3.49 16.51 3.48 16.51 3.46C15.21 2.85 13.77 2.5 12.25 2.5C6.73 2.5 2.25 6.98 2.25 12.5C2.25 18.02 6.73 22.5 12.25 22.5C17.77 22.5 22.25 18.02 22.25 12.5C22.25 10.98 21.9 9.54 21.29 8.24ZM14 12.32C14.64 12.54 15.5 13.01 15.5 14.48C15.5 15.73 14.51 16.76 13.3 16.76H13V17.01C13 17.42 12.66 17.76 12.25 17.76C11.84 17.76 11.5 17.42 11.5 17.01V16.76H11.42C10.09 16.76 9 15.64 9 14.26C9 13.84 9.34 13.5 9.75 13.5C10.16 13.5 10.5 13.84 10.5 14.25C10.5 14.8 10.91 15.25 11.42 15.25H11.5V13.03L10.5 12.68C9.86 12.46 9 11.99 9 10.52C9 9.27 9.99 8.24 11.2 8.24H11.5V8C11.5 7.59 11.84 7.25 12.25 7.25C12.66 7.25 13 7.59 13 8V8.25H13.08C14.41 8.25 15.5 9.37 15.5 10.75C15.5 11.16 15.16 11.5 14.75 11.5C14.34 11.5 14 11.16 14 10.75C14 10.2 13.59 9.75 13.08 9.75H13V11.97L14 12.32Z" fill="white"/>
<path d="M10.5 10.53C10.5 11.07 10.65 11.15 10.99 11.27L11.5 11.45V9.75H11.2C10.82 9.75 10.5 10.1 10.5 10.53Z" fill="white"/>
</svg>
